<?xml version="1.0" encoding="UTF-8"?>
<svg width="586px" height="200px" viewBox="0 0 586 200" version="1.1" xmlns="http://www.w3.org/2000/svg" xmlns:xlink="http://www.w3.org/1999/xlink">
    <!-- Generator: Sketch 60.1 (88133) - https://sketch.com -->
    <title>denon-horizontal</title>
    <desc>Created with Sketch.</desc>
    <g id="denon-horizontal" stroke="none" stroke-width="1" fill="none" fill-rule="evenodd">
        <g id="denon" fill-rule="nonzero">
            <circle id="Oval" fill="#992323" cx="100" cy="100" r="100"></circle>
            <path d="M82.9797501,56 C80.8244655,56 79.1648963,55.5532536 78.0680959,54.6743287 C74.4256649,51.7413417 72.6391735,46.0453255 73.0606514,38.6303069 C73.4462078,31.800429 75.6398086,23.94352 79.2319496,16.4993658 C79.7586584,15.4054385 80.9483234,14.8110207 82.1248376,15.0539303 C83.3013518,15.29684 84.1669983,16.3156088 84.2298151,17.5312528 C84.8476634,29.2777688 91.2847801,33.8690589 95.9833005,37.2220847 C98.2655074,38.8488242 100.066367,40.1356479 100.708163,42.0780235 C101.508013,44.4768572 100.650689,47.1621914 98.2966393,49.6411481 C96.3808308,51.6685026 93.5430394,53.4360643 90.3340601,54.6184854 C87.9760359,55.4925834 85.490124,55.9595644 82.9797501,56 L82.9797501,56 Z" id="Path" fill="#FFFFFF"></path>
            <path d="M82.4790025,18.4184353 C83.4580671,37.0209087 98.1611704,40.1488236 99.4608787,44.0328565 C100.439943,46.9662003 96.5236848,51.1359325 90.4877512,53.3427134 C88.3723534,54.1196871 86.1429003,54.5358941 83.8913032,54.574176 C82.3933343,54.574176 81.1792941,54.3278835 80.5404545,53.8131321 C74.2548594,48.8232458 75.2241334,33.3092805 82.4790025,18.4184353 M82.4790025,13 C80.4237221,13.0010199 78.5482598,14.1791795 77.6448708,16.0367867 C73.8191757,23.9009066 71.4816588,32.2428339 71.068004,39.5183147 C70.8477145,43.358015 71.1634628,46.8036472 72.0030107,49.7640832 C73.0163427,53.3353246 74.7664207,56.1307446 77.201844,58.0715296 C78.8099577,59.3522507 81.0618064,60 83.8937509,60 C86.7743604,59.9618467 89.6274889,59.4304724 92.3308404,58.4286538 C95.9876469,57.0912854 99.2405892,55.0618351 101.487543,52.7122046 C104.581387,49.4808468 105.702416,45.6830163 104.566701,42.2940313 C103.626799,39.4936855 101.360264,37.8903212 98.7339232,36.0308128 C94.1249764,32.7772887 88.4072389,28.7257769 87.8442767,18.1351989 C87.6918798,15.2557726 85.3250551,13.0008454 82.4594212,13.0049259 L82.4790025,13 Z" id="Shape" fill="#992323"></path>
            <path d="M104.628132,198 C103.914108,198 103.229643,197.714332 102.726813,197.206399 C102.223983,196.698467 101.944433,196.010362 101.950275,195.29497 L102.01357,187.340864 C102.01357,185.291968 102.208323,180.608777 102.38847,177.135411 C103.308679,159.997862 103.118794,138.157608 101.933234,126.330113 C101.173697,118.588214 99.8664161,111.085353 99.355189,109.804793 L99.3405825,109.770645 C99.0506063,109.024007 99.0787621,108.19091 99.4184838,107.465637 C100.092817,106.019214 101.502343,105.533821 104.59405,104.470347 C109.969238,102.59707 113.484533,100.675011 114.377963,99.9432625 C114.359938,99.780148 114.304984,99.6233093 114.217292,99.4847001 C113.897511,98.9370529 113.341268,98.5700106 112.712823,98.4919614 C111.828937,98.7503138 110.966225,99.0765002 110.132344,99.467626 C102.902131,102.794643 88.7533122,106.61437 80.4324822,107.482711 C78.2692863,107.696011 76.0964614,107.796153 73.9228568,107.782728 C68.942044,107.782728 63.5644215,107.346118 59.5427682,106.616809 C55.9812192,105.970431 49.9390015,103.689815 44.8535088,101.053081 C38.5483743,97.7724087 34.5900157,93.2136155 33.3995868,87.8620949 C32.7520325,84.9741275 32.9127038,79.6030935 33.7282328,76.3712044 C34.5924501,72.9563781 36.9100131,68.1658646 39.1180274,65.260823 C43.6801208,59.2434113 50.5962935,53.5796779 59.1240488,48.857461 C67.6689247,44.1505428 76.8980714,40.816304 86.4746999,38.9764171 C89.8171515,38.3495526 93.9970419,38 98.2475302,38 C101.551769,37.9851641 104.852719,38.211798 108.123951,38.6788394 C115.415024,39.7764621 121.756675,41.8034055 128.086153,45.0572471 C132.207618,47.1890744 134.310952,48.7623337 138.81462,53.0796498 C145.501957,59.4922057 149.618553,65.0925209 153.494141,73.0539445 C159.081124,84.5058085 161.230712,94.4234397 163.94265,121.290805 C165.196374,133.550032 166.674064,157.592848 166.997841,165.951855 C167.008349,166.213878 166.980462,166.47603 166.915071,166.729948 C166.328377,168.988611 164.522041,169.571571 163.652955,169.852075 C162.679189,170.161848 161.493629,170.549675 159.757891,173.998649 C159.645434,174.22333 159.502024,174.431064 159.331868,174.615757 C155.694852,178.557442 154.6018,179.211138 152.474122,179.55262 C151.892296,179.645309 151.29343,179.740436 149.932592,180.401449 C147.524956,181.567368 145.976668,182.84061 144.333438,184.20898 C141.731049,186.365199 139.04102,188.599471 133.417522,189.980036 C129.34718,190.980093 127.109953,192.155769 124.943324,193.292418 C121.895436,194.890069 119.015524,196.402349 112.651963,196.463328 L105.13449,197.926825 C104.968485,197.967682 104.798893,197.99219 104.628132,198 L104.628132,198 Z" id="Path" fill="#FFFFFF"></path>
            <path d="M99.2335688,40.3512252 C102.420032,40.3363198 105.603377,40.5526986 108.758094,40.9994245 C115.465789,41.951496 121.966265,44.0129954 127.990592,47.0986365 C131.90411,49.1114252 133.780153,50.5060175 138.136388,54.6435516 C144.610815,60.8060436 148.595266,66.1945733 152.322892,73.8125038 C157.767575,84.9010952 159.885767,94.7167864 162.561635,121.041239 C163.78461,132.840512 165.276639,156.675143 165.619071,165.439414 C165.03449,167.67855 162.194743,165.096242 158.626103,172.173859 C153.120272,178.102702 154.812869,175.031191 149.987011,177.353078 C143.297341,180.575487 142.424137,184.654609 133.92691,186.720942 C123.531626,189.261875 123.707735,193.083009 113.437195,193.114649 L105.637063,194.633367 L105.700658,186.696603 C105.700658,184.749529 105.88655,180.19094 106.072442,176.630226 C107.006795,159.381577 106.820903,137.610846 105.605266,125.53168 C104.9204,118.595226 103.582466,110.171693 102.836452,108.312237 C102.679911,107.910653 103.396574,107.569914 106.47847,106.51606 C112.104153,104.568985 116.996051,102.118105 117.744511,100.91822 C119.082445,98.6279731 116.685415,95.344718 113.635317,95.344718 C113.106992,95.344718 111.519571,95.9020682 110.056893,96.5616398 C103.085939,99.7524088 89.1122317,103.498094 81.0503837,104.335336 C78.9694462,104.536813 76.879486,104.631858 74.7887542,104.620096 C70.097424,104.620096 64.8606471,104.228247 60.8199393,103.498094 C57.5521514,102.911538 51.7014413,100.711343 46.8144352,98.2020504 C41.1887524,95.2814381 37.7277346,91.4213622 36.700436,86.8384347 C36.1403136,84.3607819 36.2944084,79.4054764 37.0110715,76.6162916 C37.7888833,73.5496487 39.9682239,69.0908472 41.9592264,66.4890684 C50.8306835,54.8747668 69.1312741,44.8108235 87.8965951,41.2793165 C91.1741668,40.6684217 95.2001989,40.3544559 99.226231,40.3544559 M99.226231,35 C94.7941713,35 90.4208145,35.3602089 86.9059857,36.0173466 C77.0030824,37.9039691 67.4593348,41.326262 58.6234771,46.1591729 C49.7300064,51.043897 42.4802135,56.9508354 37.6837075,63.2423211 C35.2377584,66.43309 32.7673499,71.5003524 31.8134298,75.2898468 C30.8839692,78.9089723 30.7274284,84.7307261 31.466105,88.0066796 C32.4224711,92.2732074 35.4383263,98.3407795 44.3513645,102.948045 L44.3635943,102.948045 C49.6859794,105.678818 56.0650144,108.059117 59.8782489,108.752762 C64.0681596,109.509688 69.6620451,109.969684 74.798538,109.969684 C77.0788325,109.982928 79.3582756,109.878132 81.6276277,109.655718 C86.0132143,109.20059 91.976438,107.952028 97.7562156,106.387066 C97.3161615,107.640788 97.3404484,109.009658 97.8247022,110.247142 L97.8247022,110.276348 C98.313892,111.675809 99.55888,119.050355 100.251084,126.067126 C101.425139,137.749575 101.618369,159.376709 100.698692,176.355202 C100.517692,179.850201 100.31957,184.557255 100.31957,186.686868 L100.255976,194.604161 C100.244892,196.031407 100.806929,197.403987 101.817283,198.417109 C102.827636,199.43023 104.202676,200 105.637063,200 C105.984396,200 106.330944,199.96715 106.6717,199.900205 L113.982641,198.476406 C120.853312,198.371751 124.130884,196.663193 127.30328,195.010613 C129.338309,193.951891 131.43938,192.854228 135.211033,191.934235 C141.460433,190.408215 144.537437,187.874584 147.25244,185.640315 C148.837415,184.335775 150.204701,183.206472 152.33023,182.186691 C153.340407,181.699923 153.692624,181.643944 154.137787,181.573363 C157.271047,181.071991 158.914725,179.765017 162.578757,175.82219 C162.92068,175.453609 163.208859,175.039048 163.434839,174.590665 C164.308043,172.860203 164.934206,172.237139 165.161679,172.049733 C165.283976,171.952379 165.298652,171.937776 165.77072,171.786878 C166.783343,171.463176 169.867685,170.475036 170.826497,166.797498 C170.960722,166.291257 171.017616,165.767797 170.995267,165.244706 C170.677294,156.872284 169.185265,132.804005 167.928047,120.508227 C166.477599,106.265374 165.269301,97.5984572 163.752812,90.598723 C162.199635,83.426186 160.230646,77.699352 157.168317,71.4735801 C153.176529,63.3299394 148.742023,57.3353827 141.861568,50.7859095 C137.113981,46.2638281 134.875938,44.6063807 130.463446,42.3404723 L130.463446,42.3404723 C123.832478,38.9574297 117.196618,36.8497211 109.575041,35.7082485 C106.1555,35.2227057 102.704836,34.9868042 99.2506905,35.0024338 L99.226231,35 Z" id="Shape" fill="#992323"></path>
            <path d="M52.6268148,55.3650808 C49.3346096,56.7568749 49.0807888,61.1220471 52.1838726,62.6646999 C54.423468,63.7815416 56.7103438,63.2535358 57.8823987,61.333736 C58.8935482,59.8045307 58.7534839,57.8067349 57.5383733,56.4267596 C56.3232628,55.0467843 54.3236015,54.614539 52.6268148,55.3650808 L52.6268148,55.3650808 Z M74.0970693,58.3457586 C72.6797823,59.2143093 71.8192101,60.7347689 71.8192101,62.3702819 C71.8192101,64.0057949 72.6797823,65.5262545 74.0970693,66.3948052 C77.1055925,68.161313 81,65.8376009 81,62.3094517 C80.9950231,58.89323 77.0135202,56.6011497 74.0970693,58.3457586 Z" id="Shape" fill="#992323"></path>
            <path d="M130.021338,56 C127.510732,55.9572365 125.024984,55.4878743 122.667547,54.6114482 C119.458794,53.4292371 116.630781,51.6619894 114.70553,49.634995 C112.349251,47.1564786 111.491988,44.4691939 112.291781,42.0732137 C112.935926,40.1311832 114.736659,38.8567257 117.016311,37.2181375 C121.716894,33.8657073 128.153557,29.2752327 128.771361,17.5308032 C128.834174,16.3153751 129.699759,15.2967872 130.87619,15.0539207 C132.052622,14.8110543 133.242203,15.4053665 133.768874,16.4990995 C137.360762,23.9419314 139.551813,31.7925897 139.939737,38.623682 C140.358791,46.039811 138.582004,51.732388 134.932646,54.6624265 C133.838317,55.5484779 132.18126,56 130.021338,56 Z" id="Path" fill="#FFFFFF"></path>
            <path d="M131.52138,18.4135094 C138.762225,33.3043547 139.731261,48.81832 133.457003,53.815595 C132.818321,54.3254205 131.607027,54.5766389 130.10698,54.5766389 C127.856757,54.5381296 125.628696,54.1219253 123.514606,53.3451763 C117.482607,51.1285437 113.557526,46.9686632 114.541243,44.0353194 C115.843078,40.1562123 130.532769,37.0282974 131.52138,18.4208982 M131.52138,13.0024629 C128.656453,12.9983825 126.290211,15.2533096 126.137852,18.1327359 C125.575029,28.7233139 119.858701,32.7797516 115.263125,36.0332757 C112.639879,37.8927842 110.369009,39.4961484 109.434232,42.2964943 C108.29635,45.6854792 109.41955,49.4833098 112.512632,52.7146675 C114.759031,55.0642981 118.008724,57.0937484 121.667077,58.4311167 C124.371441,59.4326915 127.225571,59.9632422 130.10698,60 C132.938227,60 135.18952,59.3522507 136.797238,58.0715296 C139.244296,56.1307446 140.981707,53.3353246 141.997236,49.7640832 C142.836577,46.8085731 143.152248,43.3604779 142.932013,39.5183147 C142.516013,32.2428339 140.181519,23.9009066 136.356767,16.0367867 C135.453213,14.1783819 133.577037,13 131.52138,13 L131.52138,13.0024629 Z" id="Shape" fill="#992323"></path>
            <path d="M100.001217,10.7397222 C142.45336,10.7746412 179.011461,40.6951778 187.439113,82.3023926 C195.866766,123.909607 173.833497,165.697982 134.741007,182.249806 C89.3156935,201.436735 36.9371222,180.166321 17.7501937,134.741007 C-1.43673478,89.3156935 19.8336791,36.9371222 65.2589928,17.7501937 C76.2503038,13.1003222 88.0668281,10.7159814 100.001217,10.7397222 M100.001217,1 C45.3165468,1 1,45.3165468 1,100.001217 C1,154.685888 45.3165468,199 100.001217,199 C154.685888,199 199,154.683453 199,100.001217 C199,45.3189817 154.676148,1 100.001217,1 Z" id="Shape" fill="#992323"></path>
        </g>
        <path d="M262.644401,144 C265.709234,144 268.577603,143.472 271.249509,142.416 C273.921415,141.36 276.239686,140.010667 278.204322,138.368 C279.715581,137.10441 280.982714,135.806107 282.00572,134.473089 L282.211794,134.198239 L282.212181,136.842667 C282.212181,138.456 282.695666,139.811521 283.662635,140.909229 L283.862475,141.125333 C284.962672,142.259556 286.37721,142.826667 288.10609,142.826667 C289.756385,142.826667 291.151277,142.259556 292.290766,141.125333 C293.430255,139.991111 294,138.563556 294,136.842667 L294,136.842667 L294,61.984 C294,60.1848889 293.430255,58.7377778 292.290766,57.6426667 C291.151277,56.5475556 289.756385,56 288.10609,56 C286.37721,56 284.962672,56.5671111 283.862475,57.7013333 C282.762279,58.8355556 282.212181,60.2631111 282.212181,61.984 L282.212181,61.984 L282.211794,88.6031698 L282.063961,88.4329467 C281.309262,87.5900907 280.458307,86.7680631 279.511096,85.9668639 L279.02947,85.568 C276.907662,83.8471111 274.412574,82.4391111 271.544204,81.344 C268.675835,80.2488889 265.591356,79.7013333 262.290766,79.7013333 C257.02554,79.7013333 252.251473,81.0897778 247.968566,83.8666667 C243.685658,86.6435556 240.286837,90.4373333 237.772102,95.248 C235.257367,100.058667 234,105.592889 234,111.850667 C234,118.108444 235.257367,123.642667 237.772102,128.453333 C240.286837,133.264 243.724951,137.057778 248.086444,139.834667 C252.447937,142.611556 257.300589,144 262.644401,144 Z M263.5,133 C259.909283,133 256.708861,132.054945 253.898734,130.164835 C251.088608,128.274725 248.902954,125.715201 247.341772,122.486264 C245.780591,119.257326 245,115.595238 245,111.5 C245,107.404762 245.780591,103.742674 247.341772,100.513736 C248.902954,97.2847985 251.088608,94.7252747 253.898734,92.8351648 C256.708861,90.9450549 259.909283,90 263.5,90 C267.168776,90 270.388713,90.9450549 273.15981,92.8351648 C275.930907,94.7252747 278.097046,97.2847985 279.658228,100.513736 C281.219409,103.742674 282,107.404762 282,111.5 C282,115.595238 281.219409,119.257326 279.658228,122.486264 C278.097046,125.715201 275.930907,128.274725 273.15981,130.164835 C270.388713,132.054945 267.168776,133 263.5,133 Z M337.806452,144 C341.860215,144 345.738575,143.221411 349.441532,141.664234 C353.144489,140.107056 356.048387,138.316302 358.153226,136.291971 C359.86828,134.890511 360.725806,133.333333 360.725806,131.620438 C360.725806,130.296837 360.258065,129.148418 359.322581,128.175182 C358.387097,127.201946 357.217742,126.715328 355.814516,126.715328 C354.723118,126.715328 353.553763,127.065693 352.306452,127.766423 C351.370968,128.545012 350.27957,129.36253 349.032258,130.218978 C347.784946,131.075426 346.225806,131.79562 344.354839,132.379562 C342.483871,132.963504 340.145161,133.255474 337.33871,133.255474 C333.596774,133.255474 330.205645,132.379562 327.165323,130.627737 C324.125,128.875912 321.708333,126.403893 319.915323,123.211679 C318.611315,120.890069 317.781492,118.280187 317.425853,115.382035 L317.412673,115.270073 L358.03629,115.270073 C359.491487,115.270073 360.776912,114.829219 361.892563,113.94751 L362.129032,113.751825 C363.298387,112.739659 363.922043,111.454988 364,109.89781 C363.922043,105.615572 363.103495,101.664234 361.544355,98.0437956 C359.985215,94.4233577 357.880376,91.270073 355.229839,88.5839416 C352.579301,85.8978102 349.519489,83.7956204 346.050403,82.2773723 C342.581317,80.7591241 338.975806,80 335.233871,80 C330.244624,80 325.508737,81.3041363 321.02621,83.9124088 C316.543683,86.5206813 312.918683,90.2579075 310.15121,95.1240876 C307.383737,99.9902676 306,105.849148 306,112.70073 C306,118.773723 307.30578,124.16545 309.917339,128.875912 C312.528898,133.586375 316.231855,137.284672 321.02621,139.970803 C325.820565,142.656934 331.413978,144 337.806452,144 Z M351.999324,105 L318,105 L318.088856,104.555344 C318.277687,103.659355 318.505858,102.814699 318.773369,102.021375 L318.938596,101.551541 C319.958283,98.7694941 321.291721,96.5317611 322.938908,94.8383416 C324.586096,93.144922 326.507814,91.9151769 328.704064,91.1491061 C330.900314,90.3830354 333.175001,90 335.528126,90 C338.195001,90 340.72461,90.5846329 343.116954,91.7538988 C345.509297,92.9231647 347.529063,94.5762647 349.17625,96.7131989 C350.823438,98.8501331 351.764688,101.329783 352,104.152149 L352,104.152149 L351.999324,105 Z M424.124169,143 C425.769401,143 427.160015,142.434015 428.296009,141.302045 C429.432003,140.170074 430,138.745353 430,137.027881 L430,137.027881 L430,105.644981 C430,100.8829 429.392831,96.5697026 428.178492,92.7053903 C426.964154,88.8410781 424.829268,85.7574349 421.773836,83.454461 C418.718404,81.151487 414.40946,80 408.847007,80 C406.104952,80 403.519586,80.4488848 401.090909,81.3466543 C398.662232,82.2444238 396.468588,83.454461 394.509978,84.9767658 C392.551367,86.4990706 390.886548,88.1384758 389.515521,89.8949814 C389.287017,90.1877323 389.069937,90.4799411 388.864283,90.7716078 L388.750699,90.9367328 L388.751663,87.3773234 C388.751663,85.7671933 388.252447,84.4143638 387.254015,83.318835 L387.047672,83.1031599 C385.911678,81.9711896 384.521064,81.4052045 382.875831,81.4052045 C381.152254,81.4052045 379.742055,81.9711896 378.645233,83.1031599 C377.548411,84.2351301 377,85.6598513 377,87.3773234 L377,87.3773234 L377,137.027881 C377,138.745353 377.548411,140.170074 378.645233,141.302045 C379.742055,142.434015 381.152254,143 382.875831,143 C384.521064,143 385.911678,142.434015 387.047672,141.302045 C388.183666,140.170074 388.751663,138.745353 388.751663,137.027881 L388.751663,137.027881 L388.751663,105.762082 C388.751663,102.951673 389.437177,100.434015 390.808204,98.2091078 C392.179231,95.9842007 394.079084,94.1886617 396.507761,92.8224907 C398.936438,91.4563197 401.756837,90.7732342 404.968958,90.7732342 C408.416112,90.7732342 411.099409,91.4563197 413.018847,92.8224907 C414.938285,94.1886617 416.289727,95.9842007 417.073171,98.2091078 C417.856615,100.434015 418.248337,102.951673 418.248337,105.762082 L418.248337,105.762082 L418.248337,137.027881 C418.248337,138.745353 418.796748,140.170074 419.89357,141.302045 C420.990392,142.434015 422.400591,143 424.124169,143 Z M473,144 C478.827068,144 484.071429,142.63747 488.733083,139.912409 C493.394737,137.187348 497.104637,133.430657 499.862782,128.642336 C502.620927,123.854015 504,118.345499 504,112.116788 C504,105.810219 502.620927,100.262774 499.862782,95.4744526 C497.104637,90.6861314 493.394737,86.9099757 488.733083,84.1459854 C484.071429,81.3819951 478.827068,80 473,80 C467.250627,80 462.025689,81.3819951 457.325188,84.1459854 C452.624687,86.9099757 448.895363,90.6861314 446.137218,95.4744526 C443.379073,100.262774 442,105.810219 442,112.116788 C442,118.345499 443.379073,123.854015 446.137218,128.642336 C448.895363,133.430657 452.624687,137.187348 457.325188,139.912409 C462.025689,142.63747 467.250627,144 473,144 Z M473.5,133 C469.89759,133 466.628012,132.094322 463.691265,130.282967 C460.754518,128.471612 458.40512,125.951465 456.643072,122.722527 C454.881024,119.49359 454,115.792125 454,111.618132 C454,107.28663 454.881024,103.526099 456.643072,100.336538 C458.40512,97.146978 460.754518,94.6268315 463.691265,92.7760989 C466.628012,90.9253663 469.89759,90 473.5,90 C477.180723,90 480.489458,90.9253663 483.426205,92.7760989 C486.362952,94.6268315 488.692771,97.146978 490.415663,100.336538 C492.138554,103.526099 493,107.28663 493,111.618132 C493,115.792125 492.138554,119.49359 490.415663,122.722527 C488.692771,125.951465 486.362952,128.471612 483.426205,130.282967 C480.489458,132.094322 477.180723,133 473.5,133 Z M564.124169,143 C565.769401,143 567.160015,142.434015 568.296009,141.302045 C569.432003,140.170074 570,138.745353 570,137.027881 L570,137.027881 L570,105.644981 C570,100.8829 569.392831,96.5697026 568.178492,92.7053903 C566.964154,88.8410781 564.829268,85.7574349 561.773836,83.454461 C558.718404,81.151487 554.40946,80 548.847007,80 C546.104952,80 543.519586,80.4488848 541.090909,81.3466543 C538.662232,82.2444238 536.468588,83.454461 534.509978,84.9767658 C532.551367,86.4990706 530.886548,88.1384758 529.515521,89.8949814 C529.287017,90.1877323 529.069937,90.4799411 528.864283,90.7716078 L528.751229,90.9356281 L528.751663,87.3773234 C528.751663,85.7671933 528.252447,84.4143638 527.254015,83.318835 L527.047672,83.1031599 C525.911678,81.9711896 524.521064,81.4052045 522.875831,81.4052045 C521.152254,81.4052045 519.742055,81.9711896 518.645233,83.1031599 C517.548411,84.2351301 517,85.6598513 517,87.3773234 L517,87.3773234 L517,137.027881 C517,138.745353 517.548411,140.170074 518.645233,141.302045 C519.742055,142.434015 521.152254,143 522.875831,143 C524.521064,143 525.911678,142.434015 527.047672,141.302045 C528.183666,140.170074 528.751663,138.745353 528.751663,137.027881 L528.751663,137.027881 L528.751663,105.762082 C528.751663,102.951673 529.437177,100.434015 530.808204,98.2091078 C532.179231,95.9842007 534.079084,94.1886617 536.507761,92.8224907 C538.936438,91.4563197 541.756837,90.7732342 544.968958,90.7732342 C548.416112,90.7732342 551.099409,91.4563197 553.018847,92.8224907 C554.938285,94.1886617 556.289727,95.9842007 557.073171,98.2091078 C557.856615,100.434015 558.248337,102.951673 558.248337,105.762082 L558.248337,105.762082 L558.248337,137.027881 C558.248337,138.745353 558.796748,140.170074 559.89357,141.302045 C560.990392,142.434015 562.400591,143 564.124169,143 Z" id="denon" fill="#000000" fill-rule="nonzero"></path>
    </g>
</svg>