<?xml version="1.0" encoding="UTF-8"?>
<svg width="200px" height="200px" viewBox="0 0 200 200" version="1.1" xmlns="http://www.w3.org/2000/svg" xmlns:xlink="http://www.w3.org/1999/xlink">
    <!-- Generator: Sketch 60.1 (88133) - https://sketch.com -->
    <title>denon</title>
    <desc>Created with Sketch.</desc>
    <g id="denon" stroke="none" stroke-width="1" fill="none" fill-rule="evenodd">
        <g fill-rule="nonzero">
            <circle id="Oval" fill="#992323" cx="100.019488" cy="100.019488" r="99.8781973"></circle>
            <path d="M83.001218,56.7600487 C80.8087698,56.7600487 79.1205847,56.3118149 78.0048721,55.4299635 C74.2996346,52.4872107 72.4823386,46.772229 72.911084,39.3325213 C73.3032887,32.4799026 75.5347138,24.5968331 79.1887942,17.1278928 C79.7245849,16.0303231 80.9347635,15.4339261 82.1315643,15.6776446 C83.3283652,15.921363 84.208938,16.9435239 84.272838,18.1632156 C84.9013398,29.9488429 91.4494519,34.5554202 96.228989,37.9196102 C98.5505481,39.5517661 100.38246,40.8428745 101.035323,42.7917174 C101.848965,45.1985384 100.976857,47.8928136 98.5822168,50.3800244 C96.6333739,52.4141291 93.7466504,54.1875761 90.4823386,55.3739342 C88.0836549,56.2509426 85.5548784,56.7194785 83.001218,56.7600487 L83.001218,56.7600487 Z" id="Path" fill="#FFFFFF"></path>
            <path d="M81.6077954,18.3069428 C82.5822168,36.7064555 97.2155907,39.8002436 98.5091352,43.6419001 C99.4835566,46.54324 95.5858709,50.6674787 89.5785627,52.8501827 C87.4731972,53.6186793 85.2543172,54.0303453 83.0133983,54.0682095 C81.5225335,54.0682095 80.3142509,53.8246041 79.6784409,53.3154689 C73.4226553,48.3800244 74.3873325,33.0353228 81.6077954,18.3069428 M81.6077954,12.9476248 C79.5622622,12.9486336 77.6956942,14.113939 76.7965895,15.9512789 C72.9890378,23.7295981 70.6626066,31.9805116 70.2509135,39.1766139 C70.0316687,42.9744214 70.3459196,46.3824604 71.181486,49.3105968 C72.1900122,52.8428745 73.9317905,55.6077954 76.3556638,57.5274056 C77.956151,58.7941535 80.1973203,59.4348356 83.0158343,59.4348356 C85.8827826,59.3970986 88.7223802,58.8715217 91.4129111,57.8806334 C95.0523752,56.5578563 98.2898904,54.5505481 100.526188,52.226553 C103.605359,49.0304507 104.721072,45.274056 103.590743,41.9220463 C102.655298,39.1522533 100.399513,37.5663825 97.7856273,35.727162 C93.1985384,32.5091352 87.5079172,28.501827 86.9476248,18.0267966 C86.7959507,15.178786 84.4403506,12.948461 81.5883069,12.952497 L81.6077954,12.9476248 Z" id="Shape" fill="#992323"></path>
            <path d="M104.838002,197.09866 C104.123498,197.09866 103.438572,196.813356 102.935404,196.306071 C102.432235,195.798785 102.152498,195.111558 102.158343,194.397077 L102.221681,186.453106 C102.221681,184.406821 102.416565,179.729598 102.596833,176.260658 C103.517661,159.144945 103.327649,137.332521 102.141291,125.520097 C101.381242,117.788063 100.073082,110.294762 99.5615104,109.015834 L99.546894,108.98173 C99.2567226,108.236043 99.2848974,107.404008 99.6248477,106.679659 C100.299635,105.235079 101.71011,104.750305 104.803898,103.688185 C110.182704,101.817296 113.700365,99.8976857 114.594397,99.1668697 C114.576359,99.003963 114.521369,98.8473242 114.433618,98.7088916 C114.113621,98.1619422 113.557004,97.7953676 112.928136,97.7174178 C112.043655,97.975441 111.180362,98.3012118 110.34592,98.6918392 C103.11084,102.014616 88.952497,105.829476 80.6260658,106.696711 C78.4614137,106.90974 76.2871262,107.009754 74.1120585,106.996346 C69.1278928,106.996346 63.7466504,106.560292 59.7222899,105.831912 C56.1583435,105.186358 50.1120585,102.908648 45.0231425,100.275274 C38.7137637,96.998782 34.7527406,92.4457978 33.5615104,87.1010962 C32.9135201,84.2168088 33.0742996,78.8526188 33.8903776,75.6248477 C34.7551766,72.2143727 37.0742996,67.4299635 39.2838002,64.5286236 C43.8489647,58.5188794 50.7697929,52.862363 59.3032887,48.1461632 C67.8539165,43.4452428 77.0892758,40.1152526 86.6723508,38.2777101 C90.0170524,37.6516443 94.1997564,37.3025372 98.453106,37.3025372 C101.759569,37.2877202 105.062741,37.5140653 108.336175,37.9805116 C115.632156,39.0767357 121.978076,41.1010962 128.311815,44.3507917 C132.436054,46.4799026 134.540804,48.0511571 139.047503,52.362972 C145.739342,58.7673569 149.858709,64.3605359 153.736906,72.3118149 C159.327649,83.7490865 161.478685,93.6540804 164.192448,120.487211 C165.447016,132.730816 166.9257,156.742996 167.249695,165.091352 C167.260211,165.353041 167.232306,165.614859 167.16687,165.868453 C166.579781,168.124239 164.772229,168.706456 163.902558,168.986602 C162.928136,169.295981 161.741778,169.683313 160.004872,173.127893 C159.892339,173.352288 159.748833,173.559756 159.578563,173.744214 C155.939099,177.680877 154.845311,178.333739 152.7162,178.674787 C152.133983,178.767357 151.534714,178.862363 150.17296,179.522533 C147.763703,180.686967 146.214373,181.958587 144.570037,183.325213 C141.965895,185.478685 139.274056,187.71011 133.646772,189.088916 C129.573691,190.087698 127.334957,191.261876 125.16687,192.397077 C122.116931,193.992692 119.235079,195.503045 112.867235,195.563946 L105.344702,197.025579 C105.178585,197.066383 105.008879,197.09086 104.838002,197.09866 L104.838002,197.09866 Z" id="Path" fill="#FFFFFF"></path>
            <path d="M98.453106,39.9845861 C101.626678,39.9696672 104.797144,40.1862425 107.939099,40.6333739 C114.619656,41.58631 121.093833,43.6496813 127.093788,46.7381242 C130.991474,48.7527406 132.859927,50.1485993 137.198538,54.2898904 C143.646772,60.4579781 147.615104,65.8514007 151.327649,73.4762485 C156.750305,84.5749086 158.859927,94.3995128 161.52497,120.747868 C162.742996,132.557856 164.228989,156.414129 164.570037,165.186358 C163.98782,167.427527 161.159562,164.842875 157.605359,171.926918 C152.121803,177.861145 153.807552,174.786845 149.001218,177.11084 C142.338611,180.336175 141.46894,184.419001 133.00609,186.487211 C122.652862,189.030451 122.828258,192.855055 112.599269,192.886724 L104.830694,194.406821 L104.894032,186.46285 C104.894032,184.514007 105.079172,179.951279 105.264312,176.387333 C106.194884,159.123021 106.009744,137.332521 104.799026,125.242387 C104.116931,118.299635 102.784409,109.868453 102.041413,108.007308 C101.885505,107.605359 102.599269,107.264312 105.668697,106.209501 C111.27162,104.260658 116.143727,101.807552 116.88916,100.606577 C118.221681,98.3142509 115.834348,95.0280146 112.79659,95.0280146 C112.270402,95.0280146 110.689403,95.5858709 109.232643,96.2460414 C102.28989,99.4397077 88.3727162,103.188794 80.3434836,104.026797 C78.2709647,104.228457 76.1894598,104.323588 74.1071864,104.311815 C69.4348356,104.311815 64.2192448,103.91961 60.1948843,103.188794 C56.9403167,102.601705 51.1132765,100.399513 46.2460414,97.8879415 C40.6431181,94.9646772 37.1961023,91.1010962 36.1729598,86.5140073 C35.6151035,84.0341048 35.7685749,79.0742996 36.4823386,76.2825822 C37.2570037,73.2131547 39.4275274,68.7503045 41.410475,66.1461632 C50.2460414,54.5213155 68.4725944,44.4482339 87.1619976,40.9135201 C90.4263094,40.3020706 94.4360536,39.9878197 98.4457978,39.9878197 M98.4457978,34.6285018 C94.0316687,34.6285018 89.6760049,34.9890378 86.1753959,35.6467722 C76.3125562,37.5351078 66.8074192,40.9605083 58.0073082,45.7978076 C49.1498173,50.6869671 41.9293544,56.5992692 37.1522533,62.8964677 C34.7161998,66.090134 32.2557856,71.1619976 31.3057247,74.954933 C30.3800244,78.5773447 30.2241169,84.4043849 30.9598051,87.683313 C31.9123021,91.953715 34.9159562,98.0267966 43.7929354,102.638246 L43.8051157,102.638246 C49.1059683,105.371498 55.4591961,107.753959 59.2570037,108.448234 C63.4299635,109.205847 69.001218,109.666261 74.1169306,109.666261 C76.3879998,109.679517 78.6582211,109.574625 80.9183922,109.35201 C85.2862363,108.896468 91.225335,107.646772 96.9817296,106.08039 C96.5434558,107.33525 96.5676444,108.705363 97.0499391,109.943971 L97.0499391,109.973203 C97.5371498,111.373934 98.7771011,118.755177 99.4665043,125.778319 C100.63581,137.471376 100.828258,159.118149 99.9123021,176.112058 C99.7320341,179.610231 99.5347138,184.321559 99.5347138,186.453106 L99.4713764,194.377588 C99.4603373,195.80613 100.020101,197.179956 101.026367,198.193998 C102.032633,199.20804 103.40211,199.778327 104.830694,199.778327 C105.176622,199.778327 105.521768,199.745447 105.861145,199.678441 L113.142509,198.25335 C119.985384,198.148599 123.249695,196.43849 126.409257,194.784409 C128.436054,193.724726 130.528624,192.626066 134.285018,191.705238 C140.509135,190.177832 143.573691,187.6419 146.27771,185.405603 C147.856273,184.099878 149.218027,182.969549 151.334957,181.948843 C152.341048,181.461632 152.691839,181.405603 153.135201,181.334957 C156.255786,180.83313 157.892814,179.52497 161.542022,175.578563 C161.882562,175.209647 162.169575,174.794709 162.394641,174.34592 C163.264312,172.613886 163.887942,171.990256 164.114495,171.80268 C164.236297,171.705238 164.250914,171.690621 164.721072,171.539586 C165.729598,171.215591 168.801462,170.226553 169.756395,166.545676 C169.890077,166.038975 169.946741,165.51504 169.924482,164.991474 C169.607795,156.611449 168.121803,132.521315 166.869671,120.214373 C165.425091,105.958587 164.221681,97.2838002 162.711328,90.2777101 C161.164434,83.0986602 159.20341,77.3666261 156.153471,71.135201 C152.177832,62.9841657 147.761267,56.9841657 140.908648,50.4287454 C136.180268,45.9025579 133.951279,44.2436054 129.556638,41.9756395 L129.556638,41.9756395 C122.952497,38.589525 116.343484,36.4799026 108.752741,35.3373934 C105.347033,34.8514098 101.910329,34.6152941 98.4701583,34.6309379 L98.4457978,34.6285018 Z" id="Shape" fill="#992323"></path>
            <path d="M53.3495737,55.4811206 C50.1266748,56.8745432 49.8781973,61.2448234 52.9159562,62.7892814 C55.1084044,63.90743 57.3471376,63.3788063 58.4945189,61.45676 C59.4843821,59.9257653 59.3472663,57.9256318 58.1577358,56.5440417 C56.9682053,55.1624516 55.0106402,54.7297005 53.3495737,55.4811206 L53.3495737,55.4811206 Z M74.3678441,58.4652862 C72.9803933,59.3348533 72.1379376,60.8570921 72.1379376,62.4945189 C72.1379376,64.1319457 72.9803933,65.6541845 74.3678441,66.5237515 C77.3130329,68.2923264 81.1254568,65.9658952 81.1254568,62.4336175 C81.1205847,59.0133983 77.2228989,56.7186358 74.3678441,58.4652862 Z" id="Shape" fill="#992323"></path>
            <path d="M130.099878,56.7600487 C127.545802,56.7171352 125.017013,56.2461266 122.618758,55.3666261 C119.354446,54.180268 116.477467,52.406821 114.518879,50.3727162 C112.121803,47.8855055 111.249695,45.1887942 112.063337,42.7844093 C112.718636,40.8355664 114.550548,39.5566382 116.869671,37.9123021 C121.651644,34.5481121 128.199756,29.9415347 128.828258,18.1559074 C128.892158,16.9362158 129.772731,15.9140548 130.969532,15.6703364 C132.166333,15.426618 133.376511,16.023015 133.912302,17.1205847 C137.566382,24.589525 139.795371,32.4677223 140.190012,39.3227771 C140.616322,46.7649208 138.80877,52.4774665 135.096224,55.4177832 C133.982948,56.3069428 132.297199,56.7600487 130.099878,56.7600487 Z" id="Path" fill="#FFFFFF"></path>
            <path d="M131.505481,18.3069428 C138.713764,33.0353228 139.678441,48.3800244 133.4324,53.3227771 C132.79659,53.8270402 131.590743,54.0755177 130.097442,54.0755177 C127.857339,54.0374285 125.639297,53.6257652 123.534714,52.8574909 C117.529842,50.6650426 113.622412,46.5505481 114.601705,43.6492083 C115.897686,39.8124239 130.521315,36.7186358 131.505481,18.3142509 M131.505481,12.954933 C128.653437,12.9508971 126.297837,15.1812221 126.146163,18.0292326 C125.585871,28.5042631 119.89525,32.5164434 115.320341,35.7344702 C112.708892,37.5736906 110.448234,39.1595615 109.517661,41.9293544 C108.384896,45.2813642 109.503045,49.0377588 112.582217,52.2338611 C114.818514,54.5578563 118.053593,56.5651644 121.695493,57.8879415 C124.387696,58.8785887 127.228991,59.403351 130.097442,59.4397077 C132.915956,59.4397077 135.157125,58.7990256 136.757613,57.5322777 C139.193666,55.6126675 140.923264,52.8477467 141.934227,49.3154689 C142.769793,46.3922046 143.084044,42.9817296 142.864799,39.181486 C142.45067,31.9853837 140.126675,23.7344702 136.319123,15.956151 C135.419632,14.1180222 133.551893,12.952497 131.505481,12.952497 L131.505481,12.954933 Z" id="Shape" fill="#992323"></path>
            <path d="M100.019488,10.7184575 C142.490434,10.753392 179.064727,40.6871809 187.496112,82.3128244 C195.927497,123.938468 173.88447,165.745351 134.774665,182.304507 C89.3292316,201.499933 36.9274608,180.220098 17.7320341,134.774665 C-1.46339261,89.3292316 19.8164423,36.9274608 65.2618758,17.7320341 C76.258055,13.0801031 88.0798131,10.6947062 100.019488,10.7184575 M100.019488,0.974421437 C45.3105968,0.974421437 0.974421437,45.3105968 0.974421437,100.019488 C0.974421437,154.72838 45.3105968,199.062119 100.019488,199.062119 C154.72838,199.062119 199.062119,154.725944 199.062119,100.019488 C199.062119,45.3130329 154.718636,0.974421437 100.019488,0.974421437 Z" id="Shape" fill="#992323"></path>
        </g>
    </g>
</svg>