<?xml version="1.0" encoding="UTF-8"?>
<svg width="200px" height="200px" viewBox="0 0 200 200" version="1.1" xmlns="http://www.w3.org/2000/svg" xmlns:xlink="http://www.w3.org/1999/xlink">
    <title>denom</title>
    <g id="denom" stroke="none" stroke-width="1" fill="none" fill-rule="evenodd">
        <g id="Group-2" transform="translate(5.590062, 5.590062)">
            <circle id="Oval" stroke="#979797" fill="#FFFFFF" cx="94.5134576" cy="94.5134576" r="94.0134576"></circle>
            <g id="Group">
                <g transform="translate(94.399192, 94.420684) scale(-1, 1) rotate(-180.000000) translate(-94.399192, -94.420684) translate(0.092774, 0.114265)" fill="#8C2E2E" fill-rule="nonzero">
                    <path d="M86.8828005,188.563045 C86.4421242,188.516658 85.0273216,188.354304 83.7516798,188.238337 C65.6143734,186.336471 47.7553887,178.659427 33.1898792,166.459653 C30.4994348,164.233078 24.3763543,158.109998 22.1497796,155.419553 C10.0891666,141.016398 3.03834673,124.850538 0.440676244,105.715912 C-0.139160919,101.471504 -0.139160919,87.1379288 0.440676244,82.8935208 C3.03834673,63.7588944 10.0891666,47.5930343 22.1497796,33.1898792 C24.3763543,30.4994348 30.4994348,24.3763543 33.1898792,22.1497796 C47.5930343,10.0891666 63.7588944,3.03834673 82.8935208,0.440676244 C87.1379288,-0.139160919 101.471504,-0.139160919 105.715912,0.440676244 C124.850538,3.03834673 141.016398,10.0891666 155.419553,22.1497796 C158.109998,24.3763543 164.233078,30.4994348 166.459653,33.1898792 C178.520266,47.5930343 185.571086,63.7588944 188.168756,82.8935208 C188.748593,87.1379288 188.748593,101.471504 188.168756,105.715912 C185.571086,124.850538 178.520266,141.016398 166.459653,155.419553 C164.233078,158.109998 158.109998,164.233078 155.419553,166.459653 C141.062785,178.473879 124.73457,185.617473 105.855072,188.145563 C103.814046,188.423884 100.845279,188.539852 95.3484231,188.586239 C91.150402,188.632626 87.3234767,188.609432 86.8828005,188.563045 Z M88.0424748,178.543459 C88.0424748,175.829821 88.2280227,169.938676 88.4831511,164.349045 C88.622312,161.612214 88.7846664,157.692515 88.8542468,155.651488 C89.1093752,148.41512 89.8747603,129.419655 89.9907277,127.72653 L90.1066951,126.033406 L89.0629882,126.149373 C88.4831511,126.19576 87.9497009,126.334921 87.8569269,126.404502 C87.7873465,126.497275 87.6249921,128.097626 87.5322181,129.976298 C87.1147354,138.23318 85.7463197,170.263385 85.6071587,174.948469 L85.4679978,180.097423 L86.1174154,180.190197 C86.4653177,180.236584 87.0451549,180.306164 87.4162507,180.329358 L88.0424748,180.352551 L88.0424748,178.543459 Z M110.238641,179.100103 C110.261835,179.076909 110.331415,172.072476 110.400996,163.537273 C110.49377,154.978877 110.609737,147.301833 110.679318,146.466867 C110.748898,145.608708 110.725705,144.866517 110.609737,144.82013 C110.516963,144.750549 109.937126,144.750549 109.357289,144.82013 L108.290389,144.912904 L108.128034,151.662208 C108.03526,155.39636 107.919293,159.5248 107.872906,160.870022 C107.687358,164.97527 107.525003,178.914555 107.664164,179.262457 C107.756938,179.517586 108.012067,179.540779 108.986193,179.378425 C109.658804,179.239264 110.215448,179.123296 110.238641,179.100103 Z M56.5921071,171.330285 C56.731268,171.121544 57.8213619,158.341932 59.1665841,141.619429 C59.6072603,135.937024 60.0479366,130.741683 60.1175171,130.092266 C60.2334845,128.909398 60.210291,128.863011 59.4680994,128.399141 C59.0506167,128.144013 58.6331339,127.935272 58.54036,127.935272 C58.4707795,127.935272 58.3316186,128.538302 58.2620381,129.280494 C57.9373293,132.295647 56.684881,146.861157 55.8035286,157.391 C55.2932719,163.58366 54.8294021,169.126904 54.7598217,169.729934 C54.6438542,170.750448 54.6670477,170.843222 55.2700784,171.16793 C56.0122699,171.56222 56.4297527,171.6318 56.5921071,171.330285 Z M120.443775,166.668394 C121.093193,166.436459 121.162774,166.320492 121.301934,164.998463 C121.533869,162.679114 121.464289,151.592628 121.209161,151.592628 C120.536549,151.592628 119.14494,152.381206 119.028973,152.821883 C118.959392,153.100204 118.889812,156.39368 118.889812,160.127831 C118.889812,167.665714 118.797038,167.225038 120.443775,166.668394 Z M77.6054059,165.5783 C77.6054059,164.952076 77.7677603,161.496247 77.9533082,157.854869 C78.1388561,154.213492 78.3475975,149.597988 78.4403714,147.603348 C78.6027258,143.567682 78.6491128,143.706842 77.0951492,143.614069 C76.3297641,143.590875 76.3297641,143.590875 76.2833772,144.750549 C76.2369902,145.399967 76.1210227,147.4178 75.9818618,149.273279 C75.8658944,151.128758 75.5875726,155.141231 75.4020247,158.202772 C75.2164768,161.264312 74.9845419,164.302658 74.9149615,164.952076 C74.7758005,166.11175 74.798994,166.158137 75.4252182,166.390072 C75.7963139,166.529233 76.4457316,166.645201 76.8632143,166.645201 C77.6054059,166.668394 77.6054059,166.668394 77.6054059,165.5783 Z M141.944137,162.400793 L142.732716,162.076084 L142.89507,158.968157 C142.964651,157.275032 143.011038,153.610461 142.964651,150.850436 L142.89507,145.794256 L141.920944,146.281319 L140.946818,146.745189 L140.877237,154.445427 C140.83085,158.689835 140.854044,162.284825 140.900431,162.44718 C140.993205,162.795082 140.993205,162.795082 141.944137,162.400793 Z M99.5928311,159.362446 C99.731992,159.223285 100.056701,147.974444 100.079894,142.268846 L100.103088,138.83621 L99.0129939,138.998565 C98.3867698,139.068145 97.8765131,139.137726 97.8533196,139.160919 C97.7837392,139.207306 97.0879346,156.39368 97.0879346,158.063611 L97.0879346,159.779929 L98.2708024,159.640768 C98.9434135,159.547994 99.5232506,159.432026 99.5928311,159.362446 Z M153.007431,157.715708 C153.285752,157.391 153.332139,152.311626 153.40172,124.293894 C153.4713,92.1245284 153.4713,91.2895629 153.053818,91.2895629 C152.798689,91.2895629 152.450787,91.4287239 152.242045,91.5910783 C151.894143,91.8462066 151.847756,94.6526185 151.731789,122.1369 C151.639015,138.789823 151.523047,153.911977 151.453467,155.744262 L151.314306,159.084124 L151.986917,158.597061 C152.381206,158.318739 152.821883,157.92445 153.007431,157.715708 Z M132.202873,152.961044 C132.318841,152.86827 132.434808,151.546241 132.458001,150.038664 C132.573969,144.912904 132.597162,113.48573 132.481195,113.392956 C132.434808,113.346569 132.017325,113.462536 131.553456,113.648084 L130.71849,113.995986 L130.71849,133.733643 L130.71849,153.448107 L131.367908,153.308946 C131.71581,153.216172 132.086906,153.077011 132.202873,152.961044 Z M68.1888504,151.662208 C68.2584308,151.035984 68.3743983,149.621182 68.4439787,148.461507 C68.5135592,147.325026 68.6759136,144.727356 68.8150745,142.709523 C69.0933963,138.627469 69.0470094,138.372341 67.7249806,138.372341 C67.029176,138.372341 66.9364021,138.441921 66.8436281,139.137726 C66.6116933,140.506141 65.7999212,151.917337 65.9158887,152.102885 C66.0318561,152.265239 67.2379174,152.682722 67.7945611,152.729109 C67.933722,152.752302 68.1192699,152.265239 68.1888504,151.662208 Z M29.8268237,145.747869 C30.081952,143.28936 30.5922087,138.140406 30.9633045,134.31348 C31.3575938,130.486555 31.6823026,127.239467 31.6823026,127.100306 C31.6823026,126.821984 29.8964041,125.940632 29.7108562,126.12618 C29.5948888,126.242147 27.2755401,146.768383 27.2755401,147.696122 C27.2755401,148.252766 29.0614386,150.595308 29.2933735,150.34018 C29.3629539,150.293793 29.5948888,148.229572 29.8268237,145.747869 Z M120.768484,143.312553 L121.441095,142.918264 L121.464289,137.908471 C121.487482,135.171639 121.533869,132.110099 121.533869,131.112779 C121.580256,129.025365 121.325128,128.677463 120.07268,129.118139 L119.353682,129.373268 L119.353682,131.367908 C119.353682,132.481195 119.284101,135.70509 119.191327,138.557888 L119.052166,143.706842 L119.585616,143.706842 C119.863938,143.706842 120.397389,143.521295 120.768484,143.312553 Z M40.0087642,134.31348 C40.426247,129.860331 41.0988581,122.345641 41.5395344,117.61417 L42.3281129,109.03258 L41.4235669,108.128034 L40.5422144,107.223488 L40.37986,109.055774 C40.2870861,110.076287 39.8232163,114.807758 39.3361531,119.585616 C38.8490899,124.363475 38.1532853,131.298327 37.805383,134.986092 L37.1559654,141.665816 L38.0605114,142.500781 C38.8722834,143.266166 38.9650573,143.28936 39.1274118,142.871877 C39.2201857,142.639942 39.614475,138.789823 40.0087642,134.31348 Z M22.6368428,131.507069 C23.1470995,126.937952 24.4923218,114.784565 25.6519961,104.50985 C26.8116704,94.2351357 27.9017643,84.331517 28.1105057,82.4760381 C28.2960536,80.6205591 28.6207624,77.8141473 28.8063103,76.2137967 C29.1310191,73.5001588 29.1310191,73.3146109 28.7599233,73.036289 C28.2032796,72.6188063 27.9713447,72.6651933 27.9713447,73.1522565 C27.9713447,73.3609979 27.7626034,75.1237028 27.507475,77.0255687 C27.0899923,80.2030764 26.3941877,85.5839652 24.8402241,97.6677717 C24.5155152,100.103088 23.8892911,104.950526 23.4486149,108.452743 C22.9847451,111.954959 22.312134,117.173494 21.9410382,120.049486 C21.5699425,122.925479 20.9437183,127.842498 20.5494291,131.020005 C20.1319463,134.17432 19.8768179,136.980731 19.9463984,137.282247 C20.1087528,137.908471 21.4771685,140.088659 21.6163294,139.949498 C21.6627164,139.879917 22.1265861,136.099379 22.6368428,131.507069 Z M15.539636,121.510676 C15.8875383,118.727457 16.5369559,113.648084 16.9776321,110.192254 C17.4183084,106.759618 17.9749521,102.468823 18.2300804,100.682925 L18.6707566,97.4358369 L18.1836934,97.0183541 C17.9053716,96.7864192 17.6270498,96.6936453 17.5342758,96.7864192 C17.4415019,96.8791932 17.255954,97.8069326 17.116793,98.827446 C16.9776321,99.8479595 16.1194731,105.808685 15.1917337,112.047733 L13.5449961,123.412542 L14.0784463,124.989699 C14.3567682,125.847858 14.6582835,126.543662 14.7278639,126.543662 C14.8206379,126.543662 15.1685402,124.270701 15.539636,121.510676 Z M142.871877,124.549023 C143.196586,124.224314 143.242973,122.786318 143.242973,112.140507 L143.242973,100.103088 L142.593555,100.103088 C141.178752,100.103088 141.201946,99.7551855 141.109172,112.929086 L141.039592,124.920118 L141.781783,124.920118 C142.176072,124.920118 142.686329,124.757764 142.871877,124.549023 Z M92.101335,120.397389 C97.3430629,119.60881 101.91218,118.14762 106.43491,115.828272 C109.357289,114.320695 110.748898,113.276988 113.995986,110.169061 C118.820231,105.553557 121.788998,101.51789 124.572216,95.8122928 C128.631076,87.5090246 130.208233,80.1566894 132.202873,60.4422259 C133.107419,51.6055075 134.290287,35.5788083 134.545415,29.0150516 C134.614996,27.1131857 134.77735,23.9820651 134.916511,22.0570057 C135.171639,17.9749521 135.473155,18.5315957 131.878164,16.7920842 C126.891565,14.3799616 122.090513,12.7100306 115.758691,11.156067 C108.012067,9.25420112 103.002274,8.65117047 95.3484231,8.62797698 L89.7819863,8.6047835 L89.8283733,11.2720344 C89.8283733,12.7332241 89.9675342,16.1426666 90.1066951,18.8099176 C90.8024997,31.7286896 90.6633388,48.0337106 89.7587928,57.0791703 C89.2485361,62.2745113 88.2512162,68.5831396 87.6945725,69.9747488 C87.5786051,70.2762641 88.1120553,70.5313925 90.4082104,71.319971 C94.6062315,72.7811607 98.2476089,74.6134461 98.8042526,75.5179921 C99.8015725,77.2343101 98.015674,79.6928197 95.7427123,79.6928197 C95.3484231,79.6928197 94.1655553,79.2753369 93.0754614,78.7882737 C87.8801204,76.3993446 77.466245,73.5929327 71.459132,72.9667086 C67.3074979,72.5260323 60.8597086,72.7811607 56.3833657,73.5929327 C53.9480496,74.033609 49.5876742,75.6803465 45.9462968,77.5590189 C41.7482757,79.7392066 39.1737987,82.6383925 38.4084137,86.0710285 C37.9909309,87.9265074 38.1068983,91.6374652 38.6403485,93.724879 C39.2201857,96.0210342 40.8437298,99.3608962 42.3281129,101.309149 C48.9382566,110.006707 62.5760266,117.54459 76.561699,120.188647 C81.0148484,121.023613 87.3234767,121.116387 92.101335,120.397389 Z M163.653241,119.67839 C164.488206,119.330488 164.58098,119.237714 164.58098,118.449136 C164.627367,112.117314 164.488206,97.6445782 164.372239,97.0415476 C164.349045,96.8328062 163.142984,96.8096127 162.632727,96.9951606 C162.308019,97.111128 162.261632,98.3635763 162.261632,108.591904 C162.261632,115.921046 162.354406,120.049486 162.493567,120.049486 C162.609534,120.049486 163.142984,119.887132 163.653241,119.67839 Z M173.788794,106.945166 L174.62376,106.597264 L174.461406,87.3930572 C174.275858,62.9239289 174.252664,62.2049308 173.371312,60.0943236 C171.933316,56.6384941 172.002896,55.9426895 172.142057,71.1112297 C172.188444,78.6954998 172.304411,86.3725438 172.350798,88.1584423 C172.397185,89.9443407 172.443572,94.9773273 172.466766,99.3608962 C172.466766,104.649011 172.536346,107.293069 172.698701,107.293069 C172.837862,107.293069 173.324925,107.130714 173.788794,106.945166 Z M34.3031666,101.169988 C34.4423275,99.2913158 34.3959405,99.1057679 33.7233294,97.6213848 L32.9811378,96.0442277 L32.702816,98.3635763 C32.2621397,102.074534 32.2621397,102.236889 33.1434922,102.793532 C33.5377815,103.071854 33.9552643,103.257402 34.0248447,103.211015 C34.0944252,103.164628 34.2335861,102.236889 34.3031666,101.169988 Z M19.9695919,87.1843158 C20.1783333,85.2824499 21.8018773,72.6651933 22.6368428,66.4725324 C23.8892911,56.8936224 23.9820651,55.5252067 23.4254214,56.1050439 C23.3558409,56.1746243 22.8223907,59.398519 22.2657471,63.2718312 C18.6475632,88.2744097 18.6707566,88.1120553 18.972272,88.2976032 C19.5984961,88.7150859 19.8072375,88.4831511 19.9695919,87.1843158 Z M36.6689022,76.561699 C36.8080631,75.9818618 37.4806742,69.696427 37.4806742,68.9310419 C37.4806742,68.2816243 36.6457087,67.6785937 36.2746129,68.0496894 C36.1586455,68.1656569 35.8571302,70.1371032 35.6251953,72.4100649 C35.3700669,74.7062201 35.1149386,77.0951492 35.0453581,77.7213733 L34.9061972,78.8810476 L35.7179692,77.9533082 C36.181839,77.4430515 36.5993217,76.8168273 36.6689022,76.561699 Z M55.3860458,67.8177546 C55.6411742,67.5858197 55.8035286,66.6580802 56.0122699,64.1531837 C56.3601722,59.6304538 56.4065592,59.9783561 55.4556263,59.9783561 C54.4814998,59.9783561 54.5046933,59.9087757 54.1799845,63.9908293 C53.8552757,68.1424634 53.8552757,68.0960877 54.4814998,68.0960877 C54.7830152,68.0960877 55.1773044,67.9569155 55.3860458,67.8177546 Z M73.7552871,67.4698523 C73.8016741,67.2379174 73.9176415,65.8463082 74.0104155,64.3851186 C74.0799959,62.9239289 74.2887373,59.6304538 74.4742852,57.0791703 C75.1237028,47.7090018 75.1468963,46.526134 74.752607,46.526134 C74.3119308,46.526134 74.2655438,46.8740363 73.7552871,53.4841799 C73.5697392,56.2210113 73.2218369,60.5349998 72.9899021,63.0630898 C72.7811607,65.5911799 72.6419998,67.7017871 72.7115802,67.7481741 C72.9667086,68.026496 73.6393197,67.8177546 73.7552871,67.4698523 Z M30.1515325,63.0167029 C30.2906934,62.8079615 31.1720459,55.3860458 32.2621397,45.2504922 C32.5868486,42.188952 32.9115574,39.2433792 32.9811378,38.6867355 L33.0971053,37.6894156 L32.5172681,38.0605114 C32.0765919,38.3620267 31.9142374,38.663542 31.9142374,39.1969922 C31.9142374,40.6581819 30.9169175,50.2834788 30.1515325,56.1746243 C29.7108562,59.5144864 29.3629539,62.4600592 29.3629539,62.738381 C29.3629539,63.2254442 29.9195976,63.4109921 30.1515325,63.0167029 Z M164.001143,53.3218255 L163.838789,43.6269481 L163.258952,42.7687891 C161.936923,40.8205363 162.006503,40.4494405 162.076084,51.3039922 L162.122471,61.2539979 L162.98063,62.1353504 C163.444499,62.5992201 163.908369,62.9935094 164.001143,62.9935094 C164.070724,62.9935094 164.070724,58.6331339 164.001143,53.3218255 Z M142.547168,37.9445439 C142.663136,24.4691283 142.639942,23.4254214 142.268846,23.0079386 C142.036911,22.7528103 141.82817,22.5904559 141.75859,22.6600363 C141.596235,22.8455842 141.3643,52.2317316 141.549848,52.394086 C141.642622,52.48686 141.874557,52.533247 142.083298,52.5100535 C142.384814,52.440473 142.454394,50.7937355 142.547168,37.9445439 Z M66.7972412,47.1755516 C66.9595956,45.7375554 67.5394327,38.8490899 67.7713676,35.6020018 C67.9105285,33.4218141 67.9105285,33.3522336 67.4002718,33.1898792 C67.12195,33.0971053 66.7972412,33.1202987 66.7044672,33.2362662 C66.5421128,33.3986206 66.0318561,38.5475746 65.405632,46.479747 L65.2432776,48.3816129 L65.9622757,48.3816129 C66.6348868,48.3816129 66.6812737,48.3352259 66.7972412,47.1755516 Z M48.5671608,39.0578313 C48.7295152,38.8954769 48.8454826,38.3156397 48.8454826,37.7358026 C48.8454826,37.1327719 49.1238044,34.0016512 49.4253198,30.7545631 C50.3066723,21.8714578 50.3762527,20.6653965 49.9819634,20.8973314 C49.3789328,21.2452336 48.8454826,21.7786838 48.96145,21.9178448 C49.007837,22.0106187 48.9150631,23.170293 48.7295152,24.4923218 C48.5671608,25.837544 48.3584194,28.0177317 48.2656454,29.3629539 C48.1728715,30.7081761 47.9641301,33.1666857 47.7785822,34.8134233 C47.337906,38.8722834 47.3610995,39.3361531 47.8713562,39.3361531 C48.103291,39.3361531 48.4048064,39.2201857 48.5671608,39.0578313 Z M59.5376799,23.4486149 C59.6072603,22.9383582 59.7464213,21.0364923 59.8391952,19.2274003 C60.0015496,15.7483773 59.9319692,15.493249 58.9810362,16.2122471 C58.7027144,16.4209885 58.5171665,17.3023409 58.2388446,19.9463984 C57.7517814,24.7242566 57.7285879,24.5387087 58.6331339,24.4459348 C59.305745,24.3763543 59.398519,24.2835804 59.5376799,23.4486149 Z" id="Shape"></path>
                    <path d="M51.2576052,109.287708 C48.8454826,108.244002 48.6599347,104.97372 50.9328964,103.814046 C52.5796339,102.97908 54.249565,103.373369 55.107724,104.811366 C56.731268,107.455423 54.0872106,110.516963 51.2576052,109.287708 Z" id="Path"></path>
                    <path d="M66.9827891,107.061134 C64.7562144,105.692718 64.7562144,102.399243 66.9827891,101.030827 C69.1861703,99.7087985 72.0389691,101.44831 72.0389691,104.092367 C72.0389691,106.643651 69.1165898,108.359969 66.9827891,107.061134 Z" id="Path"></path>
                </g>
                <path d="M67.5211941,73.1880451 C65.5815173,69.7244413 67.326204,62.4645993 72.7552543,51.4085191 C75.4345487,62.3667536 79.2284112,69.1413033 84.1368418,71.732168 C91.4994877,75.6184652 70.4307093,78.3834509 67.5211941,73.1880451 Z" id="Path-3" fill="#FFFFFF"></path>
                <path d="M92.4916872,181.616214 C87.5127766,182.365461 80.9781611,182.275279 76.2829447,181.394923 C61.8570773,178.667645 47.7699258,170.893776 40.8300234,161.762323 C39.1837275,159.60156 37.4406785,156.016511 36.7953969,153.461163 C36.1849535,151.072471 36.0616187,147.043533 36.5491243,144.876859 C37.4547926,140.815074 40.4271335,137.460964 45.1220733,135.022716 C48.8990086,133.074106 53.4436522,131.350276 56.1192661,130.866117 C60.7486492,130.026592 67.3889523,129.754683 71.7592764,130.218576 C77.9772493,130.866781 88.6039284,133.72929 93.9841155,136.203344 C94.4756634,136.422971 94.9889002,136.627303 95.4123101,136.772691 C95.6094877,136.840396 95.7771652,136.8918 95.8997599,136.923054 C95.9303168,136.930844 95.9399815,136.933077 95.8925326,136.933688 C96.2773703,136.921345 96.7064462,136.681446 96.9778298,136.310079 C97.1340044,136.096367 97.1862341,135.932125 97.1956068,135.854068 C97.1079248,135.782472 96.9863874,135.694 96.8352821,135.59379 C96.4273836,135.323279 95.8580451,135.002303 95.1687169,134.656975 C93.699179,133.92079 91.8074704,133.13349 89.8513589,132.452615 C88.5412366,132.002674 87.843991,131.740526 87.3554581,131.499749 C86.1291233,130.895341 85.3411029,130.004714 85.9303931,128.473055 C86.3822646,127.343376 87.3643524,121.183007 87.8614924,116.12125 C88.7512865,107.223309 88.8957812,91.0330215 88.2021856,78.1552111 C88.0442884,75.1288471 87.9211472,71.8998122 87.9214496,70.5478992 L87.8395274,65.8373734 L89.8830935,65.8458883 L95.4472576,65.8690736 C103.318701,65.8929265 108.485474,66.5293446 116.328161,68.4547949 C122.822686,70.0486892 127.74783,71.7686674 132.84206,74.2328532 C133.036245,74.3268134 133.227008,74.417938 133.456524,74.526664 C133.518289,74.5559233 133.898846,74.7357538 134.002036,74.784756 C134.431411,74.9886539 134.699967,75.1212828 134.950326,75.2568144 C135.745292,75.687167 136.276179,76.116612 136.663007,76.7820862 C137.047811,77.4440799 137.160715,78.1176407 137.14751,79.0269914 C137.143287,79.3178493 137.127207,79.6284167 137.094867,80.1062665 C137.085781,80.2405141 137.074382,80.403321 137.05188,80.7241741 C137.033316,80.9910331 137.019093,81.2036084 137.00408,81.4422951 C136.872665,83.2601939 136.709192,86.3519764 136.63668,88.3338189 C136.375543,95.0521674 135.179687,111.149023 134.285488,119.884638 C132.265624,139.848416 130.642571,147.379053 126.462527,155.930227 C123.571213,161.857421 120.458918,166.083534 115.471674,170.854984 C112.090702,174.091057 110.549093,175.245267 107.440317,176.848994 C102.713788,179.272855 97.935441,180.797238 92.4916872,181.616214 Z" id="Path" stroke="#8C2E2E" stroke-width="4" transform="translate(86.698612, 123.984095) scale(1, -1) translate(-86.698612, -123.984095) "></path>
            </g>
            <path d="M93.9172904,75.6855007 C90.8466486,69.6201295 90.846863,60.0921417 93.9179335,47.1015373 C99.2732837,57.6078962 104.405136,64.1030484 109.313492,66.5869939 C116.676025,70.3129121 98.523253,84.7835577 93.9172904,75.6855007 Z" id="Path-3" stroke="#8C2E2E" stroke-width="4" fill="#FFFFFF" transform="translate(101.331963, 62.871041) scale(-1, 1) rotate(10.000000) translate(-101.331963, -62.871041) "></path>
        </g>
    </g>
</svg>