<?xml version="1.0" encoding="UTF-8"?>
<svg width="285px" height="100px" viewBox="0 0 285 100" version="1.1" xmlns="http://www.w3.org/2000/svg" xmlns:xlink="http://www.w3.org/1999/xlink">
    <!-- Generator: Sketch 60.1 (88133) - https://sketch.com -->
    <title>denon-horizontal</title>
    <desc>Created with Sketch.</desc>
    <g id="denon-horizontal" stroke="none" stroke-width="1" fill="none" fill-rule="evenodd">
        <g id="denon" fill-rule="nonzero">
            <circle id="Oval" fill="#992323" cx="50" cy="50" r="50"></circle>
            <path d="M41.489875,28 C40.4122327,28 39.5824482,27.7766268 39.034048,27.3371644 C37.2128325,25.8706708 36.3195867,23.0226627 36.5303257,19.3151535 C36.7231039,15.9002145 37.8199043,11.97176 39.6159748,8.24968291 C39.8793292,7.70271925 40.4741617,7.40551034 41.0624188,7.52696516 C41.6506759,7.64841998 42.0834991,8.15780439 42.1149076,8.76562641 C42.4238317,14.6388844 45.64239,16.9345295 47.9916503,18.6110423 C49.1327537,19.4244121 50.0331837,20.067824 50.3540817,21.0390117 C50.7540067,22.2384286 50.3253445,23.5810957 49.1483197,24.8205741 C48.1904154,25.8342513 46.7715197,26.7180322 45.16703,27.3092427 C43.9880179,27.7462917 42.745062,27.9797822 41.489875,28 L41.489875,28 Z" id="Path" fill="#FFFFFF"></path>
            <path d="M41.2395012,9.20921763 C41.7290335,18.5104543 49.0805852,20.0744118 49.7304394,22.0164282 C50.2199717,23.4831001 48.2618424,25.5679663 45.2438756,26.6713567 C44.1861767,27.0598436 43.0714501,27.2679471 41.9456516,27.287088 C41.1966671,27.287088 40.5896471,27.1639417 40.2702272,26.9065661 C37.1274297,24.4116229 37.6120667,16.6546403 41.2395012,9.20921763 M41.2395012,6.5 C40.211861,6.50050993 39.2741299,7.08958976 38.8224354,8.01839333 C36.9095878,11.9504533 35.7408294,16.121417 35.534002,19.7591574 C35.4238572,21.6790075 35.5817314,23.4018236 36.0015054,24.8820416 C36.5081713,26.6676623 37.3832104,28.0653723 38.600922,29.0357648 C39.4049788,29.6761253 40.5309032,30 41.9468754,30 C43.3871802,29.9809234 44.8137445,29.7152362 46.1654202,29.2143269 C47.9938234,28.5456427 49.6202946,27.5309176 50.7437713,26.3561023 C52.2906934,24.7404234 52.8512079,22.8415081 52.2833504,21.1470157 C51.8133994,19.7468427 50.6801321,18.9451606 49.3669616,18.0154064 C47.0624882,16.3886443 44.2036194,14.3628884 43.9221384,9.06759943 C43.8459399,7.62788628 42.6625275,6.5004227 41.2297106,6.50246293 L41.2395012,6.5 Z" id="Shape" fill="#992323"></path>
            <path d="M52.3140658,99 C51.9570538,99 51.6148214,98.8571659 51.3634063,98.6031996 C51.1119913,98.3492333 50.9722166,98.0051811 50.9751376,97.6474849 L51.006785,93.6704318 C51.006785,92.6459839 51.1041616,90.3043887 51.194235,88.5677056 C51.6543394,79.9989308 51.5593972,69.078804 50.9666172,63.1650566 C50.5868485,59.2941071 49.9332081,55.5426765 49.6775945,54.9023965 L49.6702913,54.8853224 C49.5253032,54.5120036 49.5393811,54.095455 49.7092419,53.7328185 C50.0464084,53.0096071 50.7511715,52.7669105 52.2970249,52.2351733 C54.9846189,51.2985352 56.7422665,50.3375055 57.1889816,49.9716313 C57.1799689,49.890074 57.1524922,49.8116547 57.1086459,49.7423501 C56.9487555,49.4685265 56.6706342,49.2850053 56.3564117,49.2459807 C55.9144683,49.3751569 55.4831124,49.5382501 55.0661718,49.733813 C51.4510657,51.3973213 44.3766561,53.3071848 40.2162411,53.7413556 C39.1346431,53.8480057 38.0482307,53.8980765 36.9614284,53.891364 C34.471022,53.891364 31.7822108,53.6730591 29.7713841,53.3084044 C27.9906096,52.9852155 24.9695007,51.8449074 22.4267544,50.5265405 C19.2741871,48.8862043 17.2950078,46.6068078 16.6997934,43.9310474 C16.3760162,42.4870637 16.4563519,39.8015468 16.8641164,38.1856022 C17.2962251,36.478189 18.4550065,34.0829323 19.5590137,32.6304115 C21.8400604,29.6217056 25.2981467,26.789839 29.5620244,24.4287305 C33.8344623,22.0752714 38.4490357,20.408152 43.23735,19.4882086 C44.9085758,19.1747763 46.9985209,19 49.1237651,19 C50.7758846,18.9925821 52.4263597,19.105899 54.0619757,19.3394197 C57.707512,19.8882311 60.8783373,20.9017027 64.0430767,22.5286236 C66.1038089,23.5945372 67.1554761,24.3811668 69.4073099,26.5398249 C72.7509787,29.7461029 74.8092765,32.5462604 76.7470707,36.5269723 C79.5405618,42.2529042 80.6153559,47.2117199 81.971325,60.6454026 C82.5981869,66.7750159 83.3370318,78.7964241 83.4989204,82.9759275 C83.5041745,83.1069392 83.4902312,83.2380149 83.4575353,83.3649738 C83.1641883,84.4943057 82.2610204,84.7857855 81.8264773,84.9260373 C81.3395944,85.080924 80.7468143,85.2748374 79.8789454,86.9993247 C79.8227168,87.1116652 79.751012,87.215532 79.6659341,87.3078786 C77.8474262,89.2787212 77.3009001,89.6055689 76.2370608,89.7763102 C75.9461482,89.8226543 75.6467152,89.8702179 74.9662962,90.2007244 C73.7624781,90.783684 72.9883341,91.4203052 72.1667191,92.10449 C70.8655244,93.1825995 69.5205101,94.2997355 66.708761,94.9900182 C64.6735901,95.4900464 63.5549765,96.0778843 62.4716619,96.646209 C60.9477182,97.4450344 59.5077618,98.2011746 56.3259815,98.2316641 L52.567245,98.9634126 C52.4842426,98.9838411 52.3994467,98.9960951 52.3140658,99 L52.3140658,99 Z" id="Path" fill="#FFFFFF"></path>
            <path d="M49.6167844,20.1756126 C51.2100159,20.1681599 52.8016885,20.2763493 54.3790472,20.4997122 C57.7328944,20.975748 60.9831323,22.0064977 63.9952958,23.5493183 C65.952055,24.5557126 66.8900764,25.2530088 69.0681941,27.3217758 C72.3054076,30.4030218 74.2976331,33.0972867 76.1614462,36.9062519 C78.8837875,42.4505476 79.9428834,47.3583932 81.2808175,60.5206194 C81.8923048,66.4202562 82.6383193,78.3375714 82.8095357,82.7197068 C82.5172448,83.8392748 81.0973714,82.5481208 79.3130516,86.0869294 C76.5601359,89.0513509 77.4064343,87.5155956 74.9935056,88.676539 C71.6486703,90.2877434 71.2120684,92.3273043 66.9634549,93.360471 C61.7658132,94.6309373 61.8538674,96.5415045 56.7185974,96.5573245 L52.8185317,97.3166837 L52.850329,93.3483017 C52.850329,92.3747643 52.9432751,90.0954698 53.0362211,88.3151132 C53.5033974,79.6907884 53.4104513,68.8054229 52.802633,62.7658401 C52.4602002,59.2976129 51.7912331,55.0858466 51.4182259,54.1561184 C51.3399555,53.9553263 51.698287,53.7849572 53.2392349,53.2580301 C56.0520763,52.2844926 58.4980253,51.0590524 58.8722555,50.4591099 C59.5412226,49.3139865 58.3427076,47.672359 56.8176583,47.672359 C56.5534958,47.672359 55.7597854,47.9510341 55.0284466,48.2808199 C51.5429693,49.8762044 44.5561159,51.749047 40.5251919,52.1676681 C39.4847231,52.2684067 38.439743,52.3159292 37.3943771,52.310048 C35.048712,52.310048 32.4303236,52.1141236 30.4099697,51.749047 C28.7760757,51.4557689 25.8507207,50.3556716 23.4072176,49.1010252 C20.5943762,47.6407191 18.8638673,45.7106811 18.350218,43.4192173 C18.0701568,42.180391 18.1472042,39.7027382 18.5055357,38.3081458 C18.8944416,36.7748243 19.9841119,34.5454236 20.9796132,33.2445342 C25.4153417,27.4373834 34.5656371,22.4054118 43.9482975,20.6396582 C45.5870834,20.3342109 47.6000994,20.177228 49.6131155,20.177228 M49.6131155,17.5 C47.3970857,17.5 45.2104072,17.6801044 43.4529929,18.0086733 C38.5015412,18.9519845 33.7296674,20.663131 29.3117385,23.0795864 C24.8650032,25.5219485 21.2401068,28.4754177 18.8418537,31.6211605 C17.6188792,33.216545 16.383675,35.7501762 15.9067149,37.6449234 C15.4419846,39.4544861 15.3637142,42.3653631 15.7330525,44.0033398 C16.2112356,46.1366037 17.7191631,49.1703898 22.1756823,51.4740227 L22.1817971,51.4740227 C24.8429897,52.839409 28.0325072,54.0295585 29.9391245,54.3763812 C32.0340798,54.7548439 34.8310225,54.9848421 37.399269,54.9848421 C38.5394162,54.9914642 39.6791378,54.9390658 40.8138139,54.8278592 C43.0066072,54.6002948 45.988219,53.9760139 48.8781078,53.1935332 C48.6580807,53.8203939 48.6702242,54.5048292 48.9123511,55.1235712 L48.9123511,55.1381742 C49.156946,55.8379043 49.77944,59.5251773 50.1255418,63.0335629 C50.7125696,68.8747875 50.8091846,79.6883546 50.3493461,88.177601 C50.258846,89.9251007 50.1597851,92.2786275 50.1597851,93.343434 L50.1279878,97.3020807 C50.1224458,98.0157033 50.4034646,98.7019935 50.9086414,99.2085544 C51.4138181,99.7151152 52.1013382,100 52.8185317,100 C52.9921982,100 53.1654722,99.9835751 53.3358499,99.9501025 L56.9913207,99.2382032 C60.4266561,99.1858756 62.065442,98.3315965 63.6516399,97.5053066 C64.6691547,96.9759456 65.7196898,96.4271139 67.6055165,95.9671174 C70.7302164,95.2041075 72.2687184,93.9372919 73.6262201,92.8201577 C74.4187075,92.1678876 75.1023503,91.6032359 76.1651152,91.0933456 C76.6702036,90.8499613 76.846312,90.8219721 77.0688933,90.7866814 C78.6355237,90.5359955 79.4573625,89.8825085 81.2893784,87.9110951 C81.4603402,87.7268045 81.6044293,87.5195239 81.7174194,87.2953327 C82.1540214,86.4301013 82.4671028,86.1185693 82.5808395,86.0248664 C82.6419882,85.9761895 82.649326,85.968888 82.8853601,85.8934388 C83.3916716,85.7315882 84.9338424,85.237518 85.4132484,83.3987491 C85.4803611,83.1456284 85.5088081,82.8838987 85.4976337,82.622353 C85.338647,78.436142 84.5926325,66.4020024 83.9640236,60.2541135 C83.2387997,53.1326871 82.6346503,48.7992286 81.8764061,45.2993615 C81.0998173,41.713093 80.1153228,38.849676 78.5841587,35.73679 C76.5882643,31.6649697 74.3710115,28.6676913 70.9307842,25.3929548 C68.5569907,23.1319141 67.437969,22.3031903 65.231723,21.1702361 L65.231723,21.1702361 C61.9162391,19.4787148 58.5983092,18.4248606 54.7875207,17.8541242 C53.07775,17.6113529 51.3524178,17.4934021 49.6253452,17.5012169 L49.6131155,17.5 Z" id="Shape" fill="#992323"></path>
            <path d="M26.3134074,27.6825404 C24.6673048,28.3784374 24.5403944,30.5610235 26.0919363,31.3323499 C27.211734,31.8907708 28.3551719,31.6267679 28.9411993,30.666868 C29.4467741,29.9022653 29.376742,28.9033675 28.7691867,28.2133798 C28.1616314,27.5233921 27.1618007,27.3072695 26.3134074,27.6825404 L26.3134074,27.6825404 Z M37.0485347,29.1728793 C36.3398912,29.6071547 35.909605,30.3673845 35.909605,31.185141 C35.909605,32.0028974 36.3398912,32.7631272 37.0485347,33.1974026 C38.5527962,34.0806565 40.5,32.9188005 40.5,31.1547259 C40.4975116,29.446615 38.5067601,28.3005748 37.0485347,29.1728793 Z" id="Shape" fill="#992323"></path>
            <path d="M65.0106691,28 C63.7553662,27.9786182 62.5124918,27.7439372 61.3337736,27.3057241 C59.7293971,26.7146186 58.3153907,25.8309947 57.3527648,24.8174975 C56.1746257,23.5782393 55.7459938,22.2345969 56.1458906,21.0366069 C56.4679632,20.0655916 57.3683297,19.4283629 58.5081553,18.6090687 C60.8584471,16.9328537 64.0767784,14.6376163 64.3856807,8.7654016 C64.4170869,8.15768754 64.8498796,7.64839361 65.4380952,7.52696037 C66.0263108,7.40552713 66.6211013,7.70268324 66.8844371,8.24954975 C68.6803809,11.9709657 69.7759066,15.8962949 69.9698686,19.311841 C70.1793953,23.0199055 69.2910018,25.866194 67.4663229,27.3312132 C66.9191587,27.774239 66.09063,28 65.0106691,28 Z" id="Path" fill="#FFFFFF"></path>
            <path d="M65.7606901,9.2067547 C69.3811127,16.6521773 69.8656303,24.40916 66.7285016,26.9077975 C66.4091605,27.1627103 65.8035136,27.2883194 65.0534902,27.2883194 C63.9283787,27.2690648 62.8143478,27.0609627 61.7573028,26.6725882 C58.7413035,25.5642719 56.7787628,23.4843316 57.2706215,22.0176597 C57.921539,20.0781062 65.2663843,18.5141487 65.7606901,9.21044909 M65.7606901,6.50123146 C64.3282263,6.49919124 63.1451057,7.62665482 63.068926,9.06636797 C62.7875143,14.361657 59.9293503,16.3898758 57.6315626,18.0166378 C56.3199393,18.9463921 55.1845043,19.7480742 54.7171162,21.1482471 C54.1481751,22.8427396 54.709775,24.7416549 56.2563158,26.3573338 C57.3795156,27.532149 59.0043622,28.5468742 60.8335383,29.2155584 C62.1857203,29.7163457 63.6127855,29.9816211 65.0534902,30 C66.4691134,30 67.5947602,29.6761253 68.3986189,29.0357648 C69.622148,28.0653723 70.4908537,26.6676623 70.9986182,24.8820416 C71.4182887,23.4042865 71.576124,21.680239 71.4660064,19.7591574 C71.2580064,16.121417 70.0907596,11.9504533 68.1783836,8.01839333 C67.7266064,7.08919095 66.7885183,6.5 65.7606901,6.5 L65.7606901,6.50123146 Z" id="Shape" fill="#992323"></path>
            <path d="M50.0006087,5.3698611 C71.2266802,5.38732061 89.5057303,20.3475889 93.7195565,41.1511963 C97.9333828,61.9548037 86.9167486,82.8489911 67.3705036,91.1249032 C44.6578467,100.718367 18.4685611,90.0831604 8.87509685,67.3705036 C-0.718367388,44.6578467 9.91683955,18.4685611 32.6294964,8.87509685 C38.1251519,6.55016108 44.0334141,5.35799071 50.0006087,5.3698611 M50.0006087,0.5 C22.6582734,0.5 0.5,22.6582734 0.5,50.0006087 C0.5,77.3429441 22.6582734,99.5 50.0006087,99.5 C77.3429441,99.5 99.5,77.3417266 99.5,50.0006087 C99.5,22.6594909 77.3380742,0.5 50.0006087,0.5 Z" id="Shape" fill="#992323"></path>
        </g>
        <path d="M131.3222,72 C132.854617,72 134.288802,71.736 135.624754,71.208 C136.960707,70.68 138.119843,70.0053333 139.102161,69.184 C139.857791,68.5522051 140.491357,67.9030533 141.00286,67.2365444 L141.105897,67.0991195 L141.10609,68.4213333 C141.10609,69.228 141.347833,69.9057604 141.831318,70.4546146 L141.931238,70.5626667 C142.481336,71.1297778 143.188605,71.4133333 144.053045,71.4133333 C144.878193,71.4133333 145.575639,71.1297778 146.145383,70.5626667 C146.715128,69.9955556 147,69.2817778 147,68.4213333 L147,68.4213333 L147,30.992 C147,30.0924444 146.715128,29.3688889 146.145383,28.8213333 C145.575639,28.2737778 144.878193,28 144.053045,28 C143.188605,28 142.481336,28.2835556 141.931238,28.8506667 C141.381139,29.4177778 141.10609,30.1315556 141.10609,30.992 L141.10609,30.992 L141.105897,44.3015849 L141.031981,44.2164734 C140.654631,43.7950454 140.229153,43.3840316 139.755548,42.983432 L139.514735,42.784 C138.453831,41.9235556 137.206287,41.2195556 135.772102,40.672 C134.337917,40.1244444 132.795678,39.8506667 131.145383,39.8506667 C128.51277,39.8506667 126.125737,40.5448889 123.984283,41.9333333 C121.842829,43.3217778 120.143418,45.2186667 118.886051,47.624 C117.628684,50.0293333 117,52.7964444 117,55.9253333 C117,59.0542222 117.628684,61.8213333 118.886051,64.2266667 C120.143418,66.632 121.862475,68.5288889 124.043222,69.9173333 C126.223969,71.3057778 128.650295,72 131.3222,72 Z M131.75,66.5 C129.954641,66.5 128.35443,66.0274725 126.949367,65.0824176 C125.544304,64.1373626 124.451477,62.8576007 123.670886,61.2431319 C122.890295,59.628663 122.5,57.797619 122.5,55.75 C122.5,53.702381 122.890295,51.871337 123.670886,50.2568681 C124.451477,48.6423993 125.544304,47.3626374 126.949367,46.4175824 C128.35443,45.4725275 129.954641,45 131.75,45 C133.584388,45 135.194357,45.4725275 136.579905,46.4175824 C137.965454,47.3626374 139.048523,48.6423993 139.829114,50.2568681 C140.609705,51.871337 141,53.702381 141,55.75 C141,57.797619 140.609705,59.628663 139.829114,61.2431319 C139.048523,62.8576007 137.965454,64.1373626 136.579905,65.0824176 C135.194357,66.0274725 133.584388,66.5 131.75,66.5 Z M168.903226,72 C170.930108,72 172.869288,71.6107056 174.720766,70.8321168 C176.572245,70.053528 178.024194,69.1581509 179.076613,68.1459854 C179.93414,67.4452555 180.362903,66.6666667 180.362903,65.810219 C180.362903,65.1484185 180.129032,64.5742092 179.66129,64.0875912 C179.193548,63.6009732 178.608871,63.3576642 177.907258,63.3576642 C177.361559,63.3576642 176.776882,63.5328467 176.153226,63.8832117 C175.685484,64.2725061 175.139785,64.6812652 174.516129,65.1094891 C173.892473,65.5377129 173.112903,65.8978102 172.177419,66.189781 C171.241935,66.4817518 170.072581,66.6277372 168.669355,66.6277372 C166.798387,66.6277372 165.102823,66.189781 163.582661,65.3138686 C162.0625,64.4379562 160.854167,63.2019465 159.957661,61.6058394 C159.305657,60.4450343 158.890746,59.1400937 158.712927,57.6910177 L158.706336,57.6350365 L179.018145,57.6350365 C179.745744,57.6350365 180.388456,57.4146094 180.946281,56.9737551 L181.064516,56.8759124 C181.649194,56.3698297 181.961022,55.7274939 182,54.9489051 C181.961022,52.8077859 181.551747,50.8321168 180.772177,49.0218978 C179.992608,47.2116788 178.940188,45.6350365 177.614919,44.2919708 C176.289651,42.9489051 174.759745,41.8978102 173.025202,41.1386861 C171.290659,40.379562 169.487903,40 167.616935,40 C165.122312,40 162.754368,40.6520681 160.513105,41.9562044 C158.271841,43.2603406 156.459341,45.1289538 155.075605,47.5620438 C153.691868,49.9951338 153,52.9245742 153,56.350365 C153,59.3868613 153.65289,62.0827251 154.958669,64.4379562 C156.264449,66.7931873 158.115927,68.6423358 160.513105,69.9854015 C162.910282,71.3284672 165.706989,72 168.903226,72 Z M175.999662,52.5 L159,52.5 L159.044428,52.2776721 C159.138844,51.8296775 159.252929,51.4073493 159.386684,51.0106874 L159.469298,50.7757703 C159.979142,49.3847471 160.64586,48.2658806 161.469454,47.4191708 C162.293048,46.572461 163.253907,45.9575884 164.352032,45.5745531 C165.450157,45.1915177 166.587501,45 167.764063,45 C169.0975,45 170.362305,45.2923165 171.558477,45.8769494 C172.754649,46.4615824 173.764531,47.2881324 174.588125,48.3565995 C175.411719,49.4250666 175.882344,50.6648916 176,52.0760746 L176,52.0760746 L175.999662,52.5 Z M212.062084,71.5 C212.884701,71.5 213.580007,71.2170074 214.148004,70.6510223 C214.716001,70.0850372 215,69.3726766 215,68.5139405 L215,68.5139405 L215,52.8224907 C215,50.4414498 214.696415,48.2848513 214.089246,46.3526952 C213.482077,44.420539 212.414634,42.8787175 210.886918,41.7272305 C209.359202,40.5757435 207.20473,40 204.423503,40 C203.052476,40 201.759793,40.2244424 200.545455,40.6733271 C199.331116,41.1222119 198.234294,41.7272305 197.254989,42.4883829 C196.275684,43.2495353 195.443274,44.0692379 194.757761,44.9474907 C194.643508,45.0938662 194.534969,45.2399706 194.432142,45.3858039 L194.375349,45.4683664 L194.375831,43.6886617 C194.375831,42.8835967 194.126223,42.2071819 193.627007,41.6594175 L193.523836,41.5515799 C192.955839,40.9855948 192.260532,40.7026022 191.437916,40.7026022 C190.576127,40.7026022 189.871027,40.9855948 189.322616,41.5515799 C188.774205,42.1175651 188.5,42.8299257 188.5,43.6886617 L188.5,43.6886617 L188.5,68.5139405 C188.5,69.3726766 188.774205,70.0850372 189.322616,70.6510223 C189.871027,71.2170074 190.576127,71.5 191.437916,71.5 C192.260532,71.5 192.955839,71.2170074 193.523836,70.6510223 C194.091833,70.0850372 194.375831,69.3726766 194.375831,68.5139405 L194.375831,68.5139405 L194.375831,52.8810409 C194.375831,51.4758364 194.718588,50.2170074 195.404102,49.1045539 C196.089616,47.9921004 197.039542,47.0943309 198.25388,46.4112454 C199.468219,45.7281599 200.878418,45.3866171 202.484479,45.3866171 C204.208056,45.3866171 205.549704,45.7281599 206.509424,46.4112454 C207.469143,47.0943309 208.144863,47.9921004 208.536585,49.1045539 C208.928307,50.2170074 209.124169,51.4758364 209.124169,52.8810409 L209.124169,52.8810409 L209.124169,68.5139405 C209.124169,69.3726766 209.398374,70.0850372 209.946785,70.6510223 C210.495196,71.2170074 211.200296,71.5 212.062084,71.5 Z M236.5,72 C239.413534,72 242.035714,71.3187348 244.366541,69.9562044 C246.697368,68.593674 248.552318,66.7153285 249.931391,64.3211679 C251.310464,61.9270073 252,59.1727494 252,56.0583942 C252,52.9051095 251.310464,50.1313869 249.931391,47.7372263 C248.552318,45.3430657 246.697368,43.4549878 244.366541,42.0729927 C242.035714,40.6909976 239.413534,40 236.5,40 C233.625313,40 231.012845,40.6909976 228.662594,42.0729927 C226.312343,43.4549878 224.447682,45.3430657 223.068609,47.7372263 C221.689536,50.1313869 221,52.9051095 221,56.0583942 C221,59.1727494 221.689536,61.9270073 223.068609,64.3211679 C224.447682,66.7153285 226.312343,68.593674 228.662594,69.9562044 C231.012845,71.3187348 233.625313,72 236.5,72 Z M236.75,66.5 C234.948795,66.5 233.314006,66.0471612 231.845633,65.1414835 C230.377259,64.2358059 229.20256,62.9757326 228.321536,61.3612637 C227.440512,59.7467949 227,57.8960623 227,55.8090659 C227,53.643315 227.440512,51.7630495 228.321536,50.1682692 C229.20256,48.573489 230.377259,47.3134158 231.845633,46.3880495 C233.314006,45.4626832 234.948795,45 236.75,45 C238.590361,45 240.244729,45.4626832 241.713102,46.3880495 C243.181476,47.3134158 244.346386,48.573489 245.207831,50.1682692 C246.069277,51.7630495 246.5,53.643315 246.5,55.8090659 C246.5,57.8960623 246.069277,59.7467949 245.207831,61.3612637 C244.346386,62.9757326 243.181476,64.2358059 241.713102,65.1414835 C240.244729,66.0471612 238.590361,66.5 236.75,66.5 Z M282.062084,71.5 C282.884701,71.5 283.580007,71.2170074 284.148004,70.6510223 C284.716001,70.0850372 285,69.3726766 285,68.5139405 L285,68.5139405 L285,52.8224907 C285,50.4414498 284.696415,48.2848513 284.089246,46.3526952 C283.482077,44.420539 282.414634,42.8787175 280.886918,41.7272305 C279.359202,40.5757435 277.20473,40 274.423503,40 C273.052476,40 271.759793,40.2244424 270.545455,40.6733271 C269.331116,41.1222119 268.234294,41.7272305 267.254989,42.4883829 C266.275684,43.2495353 265.443274,44.0692379 264.757761,44.9474907 C264.643508,45.0938662 264.534969,45.2399706 264.432142,45.3858039 L264.375615,45.4678141 L264.375831,43.6886617 C264.375831,42.8835967 264.126223,42.2071819 263.627007,41.6594175 L263.523836,41.5515799 C262.955839,40.9855948 262.260532,40.7026022 261.437916,40.7026022 C260.576127,40.7026022 259.871027,40.9855948 259.322616,41.5515799 C258.774205,42.1175651 258.5,42.8299257 258.5,43.6886617 L258.5,43.6886617 L258.5,68.5139405 C258.5,69.3726766 258.774205,70.0850372 259.322616,70.6510223 C259.871027,71.2170074 260.576127,71.5 261.437916,71.5 C262.260532,71.5 262.955839,71.2170074 263.523836,70.6510223 C264.091833,70.0850372 264.375831,69.3726766 264.375831,68.5139405 L264.375831,68.5139405 L264.375831,52.8810409 C264.375831,51.4758364 264.718588,50.2170074 265.404102,49.1045539 C266.089616,47.9921004 267.039542,47.0943309 268.25388,46.4112454 C269.468219,45.7281599 270.878418,45.3866171 272.484479,45.3866171 C274.208056,45.3866171 275.549704,45.7281599 276.509424,46.4112454 C277.469143,47.0943309 278.144863,47.9921004 278.536585,49.1045539 C278.928307,50.2170074 279.124169,51.4758364 279.124169,52.8810409 L279.124169,52.8810409 L279.124169,68.5139405 C279.124169,69.3726766 279.398374,70.0850372 279.946785,70.6510223 C280.495196,71.2170074 281.200296,71.5 282.062084,71.5 Z" id="denon" fill="#000000" fill-rule="nonzero"></path>
    </g>
</svg>