<svg xmlns="http://www.w3.org/2000/svg" xmlns:xlink="http://www.w3.org/1999/xlink" width="640" height="277.1"><rect width="640" height="277.1" rx="5" ry="5" class="a"/><svg y="0%" x="0%"><circle cx="20" cy="20" r="6" fill="#ff5f58"/><circle cx="40" cy="20" r="6" fill="#ffbd2e"/><circle cx="60" cy="20" r="6" fill="#18c132"/></svg><svg height="217.1" viewBox="0 0 60 21.71" width="600" x="15" xmlns="http://www.w3.org/2000/svg" xmlns:xlink="http://www.w3.org/1999/xlink" y="50"><style>@keyframes m{0%{transform:translateX(0)}1.7%{transform:translateX(-60px)}2.5%{transform:translateX(-180px)}4.5%{transform:translateX(-240px)}49.7%{transform:translateX(-300px)}49.8%{transform:translateX(-420px)}52%{transform:translateX(-480px)}to{transform:translateX(-540px)}}.a{fill:#282d35}.f,.g,.h{fill:#71bef2;white-space:pre}.g,.h{fill:#6f7783}.h{fill:#b9c0cb}</style><g font-family="Monaco,Consolas,Menlo,'Bitstream Vera Sans Mono','Powerline Symbols',monospace" font-size="1.67"><defs><symbol id="1"><text y="1.67" class="f">[*]</text><text x="4.008" y="1.67" class="g">[</text><text x="5.01" y="1.67" class="g">main</text><text x="9.018" y="1.67" class="g">]</text><text x="11.022" y="1.67" class="h">v2.4.0</text></symbol><symbol id="2"><text y="1.67" class="f">[*]</text><text x="4.008" y="1.67" class="g">[</text><text x="5.01" y="1.67" class="g">daem</text><text x="9.018" y="1.67" class="g">]</text><text x="11.022" y="1.67" class="h">watching</text><text x="20.04" y="1.67" class="h">path(s):</text><text x="29.058" y="1.67" class="h">*.*</text></symbol><symbol id="3"><text y="1.67" class="f">[*]</text><text x="4.008" y="1.67" class="g">[</text><text x="5.01" y="1.67" class="g">daem</text><text x="9.018" y="1.67" class="g">]</text><text x="11.022" y="1.67" class="h">watching</text><text x="20.04" y="1.67" class="h">extensions:</text><text x="32.064" y="1.67" class="h">ts,tsx,js,jsx,json</text></symbol><symbol id="4"><text y="1.67" style="white-space:pre" fill="#dbab79">[!]</text><text x="4.008" y="1.67" class="g">[</text><text x="5.01" y="1.67" class="g">#0</text><text x="7.014" y="1.67" class="g">]</text><text x="9.018" y="1.67" class="h">starting</text><text x="18.036" y="1.67" class="h">`deno</text><text x="24.048" y="1.67" class="h">run</text><text x="28.056" y="1.67" class="h">--allow-env</text><text x="40.08" y="1.67" class="h">--allow-net</text><text x="52.104" y="1.67" class="h">oak.ts`</text></symbol><symbol id="5"><text y="1.67" class="h">Webserver</text><text x="10.02" y="1.67" class="h">listening</text><text x="20.04" y="1.67" class="h">to</text><text x="23.046" y="1.67" style="white-space:pre" fill="#a8cc8c">:9001</text></symbol><symbol id="6"><text y="1.67" class="f">[*]</text><text x="4.008" y="1.67" class="g">[</text><text x="5.01" y="1.67" class="g">daem</text><text x="9.018" y="1.67" class="g">]</text><text x="11.022" y="1.67" class="h">restarting</text><text x="22.044" y="1.67" class="h">due</text><text x="26.052" y="1.67" class="h">to</text><text x="29.058" y="1.67" class="h">changes...</text></symbol><symbol id="a"><path fill="transparent" d="M0 0h60v11H0z"/></symbol><symbol id="b"><path fill="#6f7683" d="M0 0h1.102v2.171H0z"/></symbol></defs><path class="a" d="M0 0h60v21.71H0z"/><g style="animation-duration:5.984198s;animation-iteration-count:infinite;animation-name:m;animation-timing-function:steps(1,end)"><svg width="600"><svg><use xlink:href="#a"/><use xlink:href="#b" x="-.004"/></svg><svg x="60"><use xlink:href="#a"/><use xlink:href="#b" x="-.004" y="2.146"/><use xlink:href="#1"/></svg><svg x="120"><use xlink:href="#a"/><use xlink:href="#b" x="-.004" y="6.488"/><use xlink:href="#1"/><use xlink:href="#2" y="2.171"/><use xlink:href="#3" y="4.342"/></svg><svg x="180"><use xlink:href="#a"/><use xlink:href="#b" x="-.004" y="8.659"/><use xlink:href="#1"/><use xlink:href="#2" y="2.171"/><use xlink:href="#3" y="4.342"/><use xlink:href="#4" y="6.513"/></svg><svg x="240"><use xlink:href="#a"/><use xlink:href="#b" x="-.004" y="10.83"/><use xlink:href="#1"/><use xlink:href="#2" y="2.171"/><use xlink:href="#3" y="4.342"/><use xlink:href="#4" y="6.513"/><use xlink:href="#5" y="8.684"/></svg><svg x="300"><use xlink:href="#a"/><use xlink:href="#b" x="-.004" y="13.001"/><use xlink:href="#1"/><use xlink:href="#2" y="2.171"/><use xlink:href="#3" y="4.342"/><use xlink:href="#4" y="6.513"/><use xlink:href="#5" y="8.684"/><use xlink:href="#6" y="10.855"/></svg><svg x="360"><use xlink:href="#a"/><use xlink:href="#b" x="-.004" y="17.343"/><use xlink:href="#1"/><use xlink:href="#2" y="2.171"/><use xlink:href="#3" y="4.342"/><use xlink:href="#4" y="6.513"/><use xlink:href="#5" y="8.684"/><use xlink:href="#6" y="10.855"/><use xlink:href="#2" y="13.026"/><use xlink:href="#3" y="15.197"/></svg><svg x="420"><use xlink:href="#a"/><use xlink:href="#b" x="-.004" y="19.514"/><use xlink:href="#1"/><use xlink:href="#2" y="2.171"/><use xlink:href="#3" y="4.342"/><use xlink:href="#4" y="6.513"/><use xlink:href="#5" y="8.684"/><use xlink:href="#6" y="10.855"/><use xlink:href="#2" y="13.026"/><use xlink:href="#3" y="15.197"/><use xlink:href="#4" y="17.368"/></svg><svg x="480"><use xlink:href="#a"/><use xlink:href="#b" x="-.004" y="21.685"/><use xlink:href="#1"/><use xlink:href="#2" y="2.171"/><use xlink:href="#3" y="4.342"/><use xlink:href="#4" y="6.513"/><use xlink:href="#5" y="8.684"/><use xlink:href="#6" y="10.855"/><use xlink:href="#2" y="13.026"/><use xlink:href="#3" y="15.197"/><use xlink:href="#4" y="17.368"/><use xlink:href="#5" y="19.539"/></svg><svg x="540"><use xlink:href="#a"/><use xlink:href="#b" x="1.996" y="21.685"/><use xlink:href="#1"/><use xlink:href="#2" y="2.171"/><use xlink:href="#3" y="4.342"/><use xlink:href="#4" y="6.513"/><use xlink:href="#5" y="8.684"/><use xlink:href="#6" y="10.855"/><use xlink:href="#2" y="13.026"/><use xlink:href="#3" y="15.197"/><use xlink:href="#4" y="17.368"/><use xlink:href="#5" y="19.539"/><text y="23.38" class="h">^C</text></svg></svg></g></g></svg></svg>